<?xml version="1.0" encoding="UTF-8"?>
<svg version="1.1" xmlns="http://www.w3.org/2000/svg" width="480" height="270">
<path d="M0 0 C2.48844678 -0.04378155 4.97671423 -0.07425995 7.46539307 -0.10119629 C8.20670975 -0.11655426 8.94802643 -0.13191223 9.71180725 -0.1477356 C13.43423316 -0.1719017 16.201805 -0.02951267 19.35992432 2.04724121 C18.69992432 4.68724121 18.03992432 7.32724121 17.35992432 10.04724121 C16.63187088 10.05754868 15.90381744 10.06785614 15.15370178 10.07847595 C8.28274495 10.17657172 1.41186698 10.27910304 -5.45894909 10.38658047 C-8.99105505 10.44167628 -12.52316946 10.49507434 -16.05535889 10.54455566 C-20.11884236 10.60155488 -24.1821783 10.66600446 -28.24554443 10.73083496 C-29.51029099 10.74754745 -30.77503754 10.76425995 -32.07810974 10.78147888 C-33.84937981 10.81139671 -33.84937981 10.81139671 -35.65643311 10.84191895 C-36.69345871 10.85746323 -37.73048431 10.87300751 -38.79893494 10.88902283 C-41.50663733 11.03981025 -44.00030077 11.44235003 -46.64007568 12.04724121 C-46.64007568 12.70724121 -46.64007568 13.36724121 -46.64007568 14.04724121 C-48.29007568 14.37724121 -49.94007568 14.70724121 -51.64007568 15.04724121 C-51.64007568 15.70724121 -51.64007568 16.36724121 -51.64007568 17.04724121 C-52.30007568 17.04724121 -52.96007568 17.04724121 -53.64007568 17.04724121 C-53.64007568 17.70724121 -53.64007568 18.36724121 -53.64007568 19.04724121 C-54.30007568 19.37724121 -54.96007568 19.70724121 -55.64007568 20.04724121 C-56.2922086 22.07187376 -56.2922086 22.07187376 -56.64007568 24.04724121 C-57.30007568 24.04724121 -57.96007568 24.04724121 -58.64007568 24.04724121 C-58.71027145 38.51202573 -58.76291581 52.97678369 -58.7955122 67.4417038 C-58.81095686 74.15858161 -58.83200015 80.87535336 -58.86639404 87.59216309 C-58.89902562 94.07606633 -58.91693687 100.55985947 -58.92470741 107.0438385 C-58.93024405 109.51572909 -58.94105572 111.98761376 -58.95726585 114.4594574 C-58.97909005 117.92569938 -58.98204044 121.39148829 -58.98065186 124.85778809 C-58.99143768 125.87630859 -59.00222351 126.8948291 -59.01333618 127.94421387 C-58.98360687 134.81702188 -58.29208562 140.73799403 -53.84320068 146.28942871 C-53.19866943 146.82825684 -52.55413818 147.36708496 -51.89007568 147.92224121 C-51.25585693 148.47653809 -50.62163818 149.03083496 -49.96820068 149.60192871 C-43.87695569 153.38340631 -37.49849597 153.33653693 -30.54901123 153.30603027 C-29.06464569 153.31128723 -29.06464569 153.31128723 -27.55029297 153.31665039 C-24.29238787 153.32542275 -21.03470159 153.319633 -17.77679443 153.31286621 C-15.50146951 153.31421447 -13.22614486 153.31615635 -10.95082092 153.31866455 C-6.18550876 153.32161 -1.42027168 153.31733792 3.34503174 153.3079834 C9.43431509 153.29660877 15.52342173 153.30313949 21.61269855 153.31512833 C26.31147068 153.32237914 31.01020141 153.32004388 35.70897484 153.31487274 C37.95311695 153.31354414 40.19726289 153.31515613 42.44140053 153.31983185 C45.58792597 153.32494794 48.7341715 153.3171149 51.88067627 153.30603027 C53.25494026 153.31210297 53.25494026 153.31210297 54.65696716 153.31829834 C65.64522759 153.29571946 65.64522759 153.29571946 75.23492432 148.73474121 C75.93617432 147.84786621 76.63742432 146.96099121 77.35992432 146.04724121 C78.10242432 145.20161621 78.84492432 144.35599121 79.60992432 143.48474121 C82.40790376 139.58755555 82.48365475 136.23794195 82.48590088 131.51599121 C82.49161102 129.85406738 82.49161102 129.85406738 82.49743652 128.15856934 C82.49897736 126.37096191 82.49897736 126.37096191 82.50054932 124.54724121 C82.51886843 122.02639878 82.5384379 119.50556518 82.55914307 116.98474121 C82.58818096 113.00802616 82.60992619 109.03188192 82.6104126 105.05505371 C82.61373626 101.21860013 82.6482145 97.38346655 82.68804932 93.54724121 C82.68097961 92.35550293 82.67390991 91.16376465 82.66662598 89.93591309 C82.78906687 81.671829 82.78906687 81.671829 85.9019165 78.26599121 C88.35992432 77.04724121 88.35992432 77.04724121 90.79742432 77.85974121 C91.64304932 78.25161621 92.48867432 78.64349121 93.35992432 79.04724121 C94.36243494 82.0547731 94.49228301 84.07438219 94.50518799 87.21789551 C94.51156784 88.27296799 94.51794769 89.32804047 94.52452087 90.41508484 C94.52619011 92.12599052 94.52619011 92.12599052 94.52789307 93.87145996 C94.53122147 95.04682816 94.53454987 96.22219635 94.53797913 97.43318176 C94.54304665 99.92391569 94.54538751 102.41465643 94.54522705 104.90539551 C94.54740561 108.7021417 94.56554159 112.49859363 94.58453369 116.29528809 C94.58746928 118.71651105 94.58945297 121.1377354 94.59039307 123.55895996 C94.59757858 124.6894426 94.6047641 125.81992523 94.61216736 126.98466492 C94.57947235 138.36429346 92.45087514 146.65977351 84.43414307 155.06677246 C75.51180665 163.29611187 66.25243143 164.198428 54.48419189 164.19250488 C53.03390594 164.1975428 53.03390594 164.1975428 51.55432129 164.2026825 C48.37101949 164.21214877 45.18777055 164.21413359 42.00445557 164.21520996 C39.7787626 164.21842609 37.55306985 164.22179042 35.32737732 164.22529602 C30.66463735 164.23127687 26.00191589 164.23313705 21.33917236 164.23254395 C15.38910218 164.23244251 9.43915183 164.24608039 3.48910999 164.26331615 C-1.1085107 164.27448252 -5.70610287 164.27646171 -10.30373573 164.27593422 C-12.49598922 164.2771079 -14.6882436 164.281495 -16.88048363 164.28926659 C-48.37969208 164.39045971 -48.37969208 164.39045971 -58.64007568 156.04724121 C-68.59674485 145.71484868 -69.7925997 135.01301339 -69.78533936 121.32751465 C-69.78869797 120.40098587 -69.79205658 119.47445709 -69.79551697 118.51985168 C-69.80495095 115.48209257 -69.8069663 112.44438903 -69.80804443 109.40661621 C-69.81126239 107.27585834 -69.81462686 105.14510068 -69.81813049 103.01434326 C-69.82410299 98.55606576 -69.82597234 94.09780759 -69.82537842 89.63952637 C-69.82527694 83.95640866 -69.83892336 78.27341628 -69.85615063 72.59032822 C-69.86732708 68.19083092 -69.86929589 63.79136337 -69.86876869 59.39185333 C-69.86994053 57.2981142 -69.87431703 55.2043741 -69.88210106 53.11064911 C-69.9899281 21.11164237 -69.9899281 21.11164237 -61.64007568 11.04724121 C-53.50985145 3.07774628 -46.4932489 0.78826802 -35.40179443 0.63317871 C-34.5221553 0.61381256 -33.64251617 0.59444641 -32.73622131 0.57449341 C-29.93343632 0.51513081 -27.13060112 0.46868817 -24.32757568 0.42224121 C-22.48836609 0.38398176 -20.6491729 0.34492566 -18.80999756 0.30505371 C-14.29892161 0.21118068 -9.78792535 0.14015285 -5.27624512 0.08276367 C-3.51744006 0.05906372 -1.7586832 0.03146968 0 0 Z " fill="#1B1FE9" transform="translate(227.64007568359375,57.9527587890625)"/>
<path d="M0 0 C0.78503906 -0.05929688 1.57007813 -0.11859375 2.37890625 -0.1796875 C3.49458984 -0.27056641 3.49458984 -0.27056641 4.6328125 -0.36328125 C6.81640625 0.2578125 6.81640625 0.2578125 8.91015625 2.8125 C10.88852402 6.3881565 12.40114777 9.97853452 13.75390625 13.8203125 C14.26899137 15.23847745 14.78462446 16.65644349 15.30078125 18.07421875 C15.55408203 18.77691895 15.80738281 19.47961914 16.06835938 20.20361328 C17.17312721 23.23739806 18.33761426 26.24723348 19.50390625 29.2578125 C21.80057372 35.1928432 24.03696069 41.14910617 26.24609375 47.1171875 C28.98065205 54.48722398 31.80729523 61.78395247 34.93359375 69 C35.81640625 71.2578125 35.81640625 71.2578125 35.81640625 73.2578125 C30.27783289 74.62473645 25.45124985 73.86881964 19.81640625 73.2578125 C17.83640625 68.6378125 15.85640625 64.0178125 13.81640625 59.2578125 C4.42493722 59.15872314 -4.84101079 59.12782406 -14.18359375 60.2578125 C-14.37695312 60.94488281 -14.5703125 61.63195312 -14.76953125 62.33984375 C-15.02992188 63.24089844 -15.2903125 64.14195312 -15.55859375 65.0703125 C-15.81382812 65.96363281 -16.0690625 66.85695313 -16.33203125 67.77734375 C-17.18359375 70.2578125 -17.18359375 70.2578125 -19.18359375 73.2578125 C-21.81056439 73.47918643 -24.19253339 73.53943275 -26.80859375 73.4453125 C-27.515 73.43177734 -28.22140625 73.41824219 -28.94921875 73.40429688 C-30.69433503 73.3689229 -32.43905983 73.31511471 -34.18359375 73.2578125 C-34.84359375 71.9378125 -35.50359375 70.6178125 -36.18359375 69.2578125 C-35.19359375 69.2578125 -34.20359375 69.2578125 -33.18359375 69.2578125 C-33.05726563 68.53078125 -32.9309375 67.80375 -32.80078125 67.0546875 C-32.205709 64.35803098 -31.37929562 62.04761693 -30.30859375 59.5078125 C-29.00919192 56.34546898 -27.79479272 53.1992756 -26.74609375 49.9453125 C-24.1321697 41.91985919 -20.97709614 34.08800681 -17.68359375 26.3203125 C-15.33170114 20.75860419 -13.33293937 15.10437222 -11.39453125 9.38671875 C-10.24136647 6.40708976 -9.0026517 3.88108555 -7.18359375 1.2578125 C-4.77111671 0.33539481 -2.54664518 0.30067725 0 0 Z M-1.18359375 25.2578125 C-1.60511719 26.46179688 -2.02664062 27.66578125 -2.4609375 28.90625 C-3.01425392 30.48179507 -3.56764311 32.05731458 -4.12109375 33.6328125 C-4.39888672 34.426875 -4.67667969 35.2209375 -4.96289062 36.0390625 C-5.36411133 37.17988281 -5.36411133 37.17988281 -5.7734375 38.34375 C-6.01956787 39.0454834 -6.26569824 39.7472168 -6.51928711 40.47021484 C-7.18359375 42.2578125 -7.18359375 42.2578125 -8.18359375 44.2578125 C-2.57359375 44.2578125 3.03640625 44.2578125 8.81640625 44.2578125 C6.75631737 37.53541721 4.09857861 31.47188586 0.81640625 25.2578125 C0.15640625 25.2578125 -0.50359375 25.2578125 -1.18359375 25.2578125 Z " fill="#655CF6" transform="translate(228.18359375,90.7421875)"/>
<path d="M0 0 C0.99 0.33 1.98 0.66 3 1 C2.97679687 2.07378906 2.95359375 3.14757813 2.9296875 4.25390625 C2.91091376 5.69009715 2.8927153 7.12629565 2.875 8.5625 C2.85824219 9.26697266 2.84148437 9.97144531 2.82421875 10.69726562 C2.76465619 17.15980339 3.44137686 22.98180656 8.125 27.8125 C11 30.81818182 11 30.81818182 11 33 C11.61875 33.309375 12.2375 33.61875 12.875 33.9375 C14.25 34.625 15.625 35.3125 17 36 C16.67 37.65 16.34 39.3 16 41 C15.04480469 40.88140625 14.08960938 40.7628125 13.10546875 40.640625 C3.7061076 39.70350026 -4.40739616 39.52193643 -12.1953125 45.7578125 C-16.70158826 50.07524597 -16.70158826 50.07524597 -18.15821838 55.9359436 C-18.17376266 57.19280975 -18.18930695 58.4496759 -18.20532227 59.74462891 C-18.22017166 60.78382225 -18.22017166 60.78382225 -18.23532104 61.8440094 C-18.26695497 64.13815878 -18.29170086 66.43232889 -18.31640625 68.7265625 C-18.33697415 70.31554712 -18.35797058 71.90452624 -18.37937927 73.49349976 C-18.43461691 77.67903195 -18.48401869 81.86461366 -18.53222656 86.05023193 C-18.58242926 90.3199912 -18.63812174 94.58967842 -18.69335938 98.859375 C-18.80096163 107.23952245 -18.90240199 115.6197301 -19 124 C-22.62323233 124.78420022 -25.55465878 125.03436415 -29.25 124.625 C-30.12140625 124.53476563 -30.9928125 124.44453125 -31.890625 124.3515625 C-34 124 -34 124 -35 123 C-35.09960152 120.79675026 -35.12799757 118.5902651 -35.12939453 116.38476562 C-35.13114685 115.69372238 -35.13289917 115.00267914 -35.13470459 114.29069519 C-35.13912254 111.99585493 -35.13618533 109.70109111 -35.1328125 107.40625 C-35.13348556 105.81823715 -35.13445559 104.23022441 -35.13571167 102.64221191 C-35.13718857 99.3098045 -35.13503436 95.97742384 -35.13037109 92.64501953 C-35.1246738 88.3640149 -35.12795285 84.08307295 -35.13394356 79.80207062 C-35.1375494 76.52166264 -35.13641048 73.24126963 -35.13381577 69.96086121 C-35.13314656 68.3819325 -35.1339747 66.80300246 -35.13629532 65.22407532 C-35.13882223 63.02109147 -35.13498075 60.81821051 -35.12939453 58.61523438 C-35.12859894 57.35916382 -35.12780334 56.10309326 -35.12698364 54.80895996 C-35 52 -35 52 -34 51 C-32.31816052 50.76712992 -30.6287584 50.58735834 -28.9375 50.4375 C-28.01839844 50.35371094 -27.09929687 50.26992187 -26.15234375 50.18359375 C-25.44207031 50.12300781 -24.73179687 50.06242187 -24 50 C-23.19469097 39.918724 -24.14521099 32.43195347 -30 24 C-31.89571021 22.12607956 -33.87869306 20.62797974 -36 19 C-36.66796875 16.37109375 -36.66796875 16.37109375 -37 14 C-36.43079834 13.9906543 -35.86159668 13.98130859 -35.27514648 13.97167969 C-32.66176347 13.91753831 -30.05008758 13.83398255 -27.4375 13.75 C-26.54224609 13.73582031 -25.64699219 13.72164062 -24.72460938 13.70703125 C-16.40352946 13.40222979 -11.46745984 10.98628475 -5.6875 4.8125 C-2.16520211 1.08260105 -2.16520211 1.08260105 0 0 Z " fill="#81FDFC" transform="translate(306,40)"/>
<path d="M0 0 C1.2684375 0.5878125 1.2684375 0.5878125 2.5625 1.1875 C3.56501063 4.19503188 3.69485869 6.21464098 3.70776367 9.3581543 C3.71414352 10.41322678 3.72052338 11.46829926 3.72709656 12.55534363 C3.72876579 14.26624931 3.72876579 14.26624931 3.73046875 16.01171875 C3.73379715 17.18708694 3.73712555 18.36245514 3.74055481 19.57344055 C3.74562233 22.06417448 3.74796319 24.55491522 3.74780273 27.0456543 C3.74998129 30.84240049 3.76811727 34.63885242 3.78710938 38.43554688 C3.79004497 40.85676984 3.79202865 43.27799419 3.79296875 45.69921875 C3.80015427 46.82970139 3.80733978 47.96018402 3.81474304 49.12492371 C3.78204803 60.50455225 1.65345082 68.8000323 -6.36328125 77.20703125 C-14.65834572 84.85781887 -22.87551641 86.30011107 -34.04663086 86.33276367 C-35.13615051 86.33780159 -35.13615051 86.33780159 -36.24768066 86.34294128 C-38.63258614 86.35238377 -41.01742078 86.35439164 -43.40234375 86.35546875 C-45.08036832 86.3586882 -46.75839262 86.36205277 -48.43641663 86.36555481 C-51.95249073 86.37153099 -55.46854032 86.37339649 -58.98461914 86.37280273 C-63.44562022 86.37270171 -67.90645998 86.38629853 -72.36742306 86.40357494 C-75.83629548 86.41481219 -79.3051305 86.41671831 -82.77401924 86.41619301 C-84.41591505 86.41735769 -86.05781233 86.42169224 -87.69968987 86.42952538 C-100.83349789 86.48627429 -113.78520369 86.05597615 -126.4375 82.1875 C-126.1075 81.1975 -125.7775 80.2075 -125.4375 79.1875 C-122.1353772 78.0867924 -119.49666721 77.98122928 -116.01953125 77.87109375 C-114.76591797 77.82919922 -113.51230469 77.78730469 -112.22070312 77.74414062 C-110.91037109 77.70482422 -109.60003906 77.66550781 -108.25 77.625 C-106.91470022 77.58179008 -105.57941348 77.538175 -104.24414062 77.49414062 C-100.97536703 77.38793498 -97.70651667 77.28589003 -94.4375 77.1875 C-94.4375 76.8575 -94.4375 76.5275 -94.4375 76.1875 C-93.63285309 76.17941315 -92.82820618 76.17132629 -91.99917603 76.16299438 C-84.3791915 76.08473149 -76.7593898 75.99734797 -69.13962746 75.89997292 C-65.22316587 75.85023826 -61.30672831 75.80390825 -57.39013672 75.765625 C-53.60338695 75.72848119 -49.81685022 75.68204677 -46.03028488 75.62943649 C-44.59280548 75.61104576 -43.15528069 75.59588267 -41.71773148 75.58415604 C-27.83836566 76.03096 -27.83836566 76.03096 -15.5625 70.875 C-14.86125 69.988125 -14.16 69.10125 -13.4375 68.1875 C-12.695 67.341875 -11.9525 66.49625 -11.1875 65.625 C-8.38952055 61.72781434 -8.31376957 58.37820074 -8.31152344 53.65625 C-8.30771667 52.54830078 -8.30390991 51.44035156 -8.29998779 50.29882812 C-8.29896057 49.10708984 -8.29793335 47.91535156 -8.296875 46.6875 C-8.27855589 44.16665757 -8.25898642 41.64582396 -8.23828125 39.125 C-8.20924336 35.14828495 -8.18749812 31.17214071 -8.18701172 27.1953125 C-8.18368806 23.35885892 -8.14920982 19.52372534 -8.109375 15.6875 C-8.1164447 14.49576172 -8.1235144 13.30402344 -8.13079834 12.07617188 C-8.00835745 3.81208779 -8.00835745 3.81208779 -4.89550781 0.40625 C-2.4375 -0.8125 -2.4375 -0.8125 0 0 Z " fill="#33AAF1" transform="translate(318.4375,135.8125)"/>
<path d="M0 0 C0 0.66 0 1.32 0 2 C1.65 1.67 3.3 1.34 5 1 C4.67 25.09 4.34 49.18 4 74 C-0.05623615 74.81124723 -2.31589721 75.06081378 -6.25 74.625 C-7.12140625 74.53476563 -7.9928125 74.44453125 -8.890625 74.3515625 C-11 74 -11 74 -12 73 C-12.09960152 70.79675026 -12.12799757 68.5902651 -12.12939453 66.38476562 C-12.13114685 65.69372238 -12.13289917 65.00267914 -12.13470459 64.29069519 C-12.13912254 61.99585493 -12.13618533 59.70109111 -12.1328125 57.40625 C-12.13348556 55.81823715 -12.13445559 54.23022441 -12.13571167 52.64221191 C-12.13718857 49.3098045 -12.13503436 45.97742384 -12.13037109 42.64501953 C-12.1246738 38.3640149 -12.12795285 34.08307295 -12.13394356 29.80207062 C-12.1375494 26.52166264 -12.13641048 23.24126963 -12.13381577 19.96086121 C-12.13314656 18.3819325 -12.1339747 16.80300246 -12.13629532 15.22407532 C-12.13882223 13.02109147 -12.13498075 10.81821051 -12.12939453 8.61523438 C-12.12859894 7.35916382 -12.12780334 6.10309326 -12.12698364 4.80895996 C-12 2 -12 2 -11 1 C-7.27655361 0.45949972 -3.75944015 0 0 0 Z " fill="#47C3F9" transform="translate(283,90)"/>
<path d="M0 0 C2.6875 -0.3125 2.6875 -0.3125 5 0 C4.38125 0.556875 3.7625 1.11375 3.125 1.6875 C-0.15556102 5.25752228 -1 7.76929689 -1 12.625 C-1 16 -1 16 -3 19 C-3.38218767 20.65614657 -3.71395102 22.32457024 -4 24 C-4.32483418 25.33542939 -4.6550855 26.66961551 -5 28 C-2.65466049 28.76956136 -2.65466049 28.76956136 0 29 C1.67482482 27.57547956 1.67482482 27.57547956 3 26 C2.69201674 27.48011371 2.378482 28.95907325 2.0625 30.4375 C1.80146484 31.67306641 1.80146484 31.67306641 1.53515625 32.93359375 C1 35 1 35 0 36 C-0.07205511 37.68608966 -0.08386068 39.37500659 -0.0625 41.0625 C-0.05347656 41.98160156 -0.04445312 42.90070313 -0.03515625 43.84765625 C-0.02355469 44.55792969 -0.01195312 45.26820313 0 46 C1.65 46.33 3.3 46.66 5 47 C1.25 52.875 1.25 52.875 -1 54 C0.98 54.33 2.96 54.66 5 55 C4.67 55.99 4.34 56.98 4 58 C-1.445 58.495 -1.445 58.495 -7 59 C-7.680625 61.3821875 -7.680625 61.3821875 -8.375 63.8125 C-9.30537823 67.0688238 -10.09610151 69.14415227 -12 72 C-14.62697064 72.22137393 -17.00893964 72.28162025 -19.625 72.1875 C-20.33140625 72.17396484 -21.0378125 72.16042969 -21.765625 72.14648438 C-23.51074128 72.1111104 -25.25546608 72.05730221 -27 72 C-27.66 70.68 -28.32 69.36 -29 68 C-28.01 68 -27.02 68 -26 68 C-25.87367188 67.27296875 -25.74734375 66.5459375 -25.6171875 65.796875 C-25.02211525 63.10021848 -24.19570187 60.78980443 -23.125 58.25 C-21.82559817 55.08765648 -20.61119897 51.9414631 -19.5625 48.6875 C-16.94857595 40.66204669 -13.79350239 32.83019431 -10.5 25.0625 C-8.14810739 19.50079169 -6.14934562 13.84655972 -4.2109375 8.12890625 C-3.05391732 5.13931539 -1.87365999 2.60096759 0 0 Z " fill="#7527F5" transform="translate(221,92)"/>
<path d="M0 0 C2.48912931 -0.04484865 4.97802125 -0.07555663 7.46740723 -0.10186768 C8.2079837 -0.11697891 8.94856018 -0.13209015 9.71157837 -0.1476593 C13.43052227 -0.17011715 16.19484097 -0.02295632 19.35021973 2.05047607 C18.69021973 4.69047607 18.03021973 7.33047607 17.35021973 10.05047607 C16.62216629 10.06078354 15.89411285 10.071091 15.14399719 10.08171082 C8.27304036 10.17980658 1.40216239 10.2823379 -5.46865368 10.38981533 C-9.00075964 10.44491115 -12.53287405 10.49830921 -16.06506348 10.54779053 C-20.12854695 10.60478974 -24.19188289 10.66923932 -28.25524902 10.73406982 C-29.51999557 10.75078232 -30.78474213 10.76749481 -32.08781433 10.78471375 C-33.8590844 10.81463158 -33.8590844 10.81463158 -35.6661377 10.84515381 C-36.7031633 10.86069809 -37.7401889 10.87624237 -38.80863953 10.89225769 C-41.51634192 11.04304511 -44.01000536 11.44558489 -46.64978027 12.05047607 C-46.64978027 12.71047607 -46.64978027 13.37047607 -46.64978027 14.05047607 C-48.29978027 14.38047607 -49.94978027 14.71047607 -51.64978027 15.05047607 C-51.64978027 15.71047607 -51.64978027 16.37047607 -51.64978027 17.05047607 C-52.30978027 17.05047607 -52.96978027 17.05047607 -53.64978027 17.05047607 C-53.64978027 17.71047607 -53.64978027 18.37047607 -53.64978027 19.05047607 C-54.30978027 19.38047607 -54.96978027 19.71047607 -55.64978027 20.05047607 C-56.30191319 22.07510863 -56.30191319 22.07510863 -56.64978027 24.05047607 C-57.96978027 24.38047607 -59.28978027 24.71047607 -60.64978027 25.05047607 C-60.64978027 23.40047607 -60.64978027 21.75047607 -60.64978027 20.05047607 C-61.96978027 20.05047607 -63.28978027 20.05047607 -64.64978027 20.05047607 C-66.41593146 24.76021257 -67.13572858 29.08130971 -67.64978027 34.05047607 C-67.97978027 34.05047607 -68.30978027 34.05047607 -68.64978027 34.05047607 C-69.67421493 25.47557856 -67.39772157 19.19250641 -62.64978027 12.05047607 C-57.39917361 6.15396145 -50.74489873 1.54391218 -42.69540405 0.89225769 C-41.67097702 0.86894127 -41.67097702 0.86894127 -40.62585449 0.84515381 C-39.84338348 0.82520859 -39.06091248 0.80526337 -38.25473022 0.78471375 C-37.41314362 0.76800125 -36.57155701 0.75128876 -35.70446777 0.73406982 C-34.8205838 0.71328873 -33.93669983 0.69250763 -33.02603149 0.6710968 C-31.14822099 0.62785822 -29.2703589 0.58681314 -27.39245605 0.54779053 C-24.58356284 0.48920217 -21.77489786 0.4238019 -18.96618652 0.3571167 C-14.4134681 0.25233103 -9.86071689 0.16569259 -5.30737305 0.09313965 C-3.53820425 0.06473836 -1.7690758 0.0336994 0 0 Z " fill="#253AE0" transform="translate(227.6497802734375,57.94952392578125)"/>
<path d="M0 0 C3.32901247 2.21934164 3.75023244 3.34683329 5 7 C5.66 6.34 6.32 5.68 7 5 C10.84371139 4.57292096 13.1464038 4.48784228 16.5 6.5 C18.79940371 10.33233951 17.97450718 12.68432536 17 17 C14.39295102 19.60704898 12.52661759 19.23905333 8.97265625 19.265625 C7 19 7 19 4 17 C3.34 17.66 2.68 18.32 2 19 C-0.125 18.625 -0.125 18.625 -2 18 C-2.495 16.02 -2.495 16.02 -3 14 C-3.33 15.65 -3.66 17.3 -4 19 C-8.37105751 20.35923265 -11.80163023 19.70252362 -16 18 C-18 15.875 -18 15.875 -19 14 C-19.66 15.65 -20.32 17.3 -21 19 C-21.78375 18.814375 -22.5675 18.62875 -23.375 18.4375 C-25.97089775 17.74037734 -25.97089775 17.74037734 -28 19 C-35.46666667 19.35555556 -35.46666667 19.35555556 -39 17 C-39.33 17.66 -39.66 18.32 -40 19 C-41.65 19 -43.3 19 -45 19 C-45.59732819 16.23735711 -46 13.83967231 -46 11 C-46.59732819 13.76264289 -47 16.16032769 -47 19 C-48.65 19 -50.3 19 -52 19 C-52.07347656 17.84371094 -52.07347656 17.84371094 -52.1484375 16.6640625 C-52.22320312 15.66117188 -52.29796875 14.65828125 -52.375 13.625 C-52.44460937 12.62726563 -52.51421875 11.62953125 -52.5859375 10.6015625 C-52.76363964 7.84491121 -52.76363964 7.84491121 -55 6 C-50.98575735 4.66191912 -47.18573976 4.80067906 -43 5 C-42.01 5.66 -41.02 6.32 -40 7 C-39.29875 6.690625 -38.5975 6.38125 -37.875 6.0625 C-34.23451615 4.71710379 -31.6638146 5.2151285 -27.890625 5.80859375 C-27.26671875 5.87175781 -26.6428125 5.93492187 -26 6 C-25.67 5.67 -25.34 5.34 -25 5 C-23.36527118 4.91299658 -21.72685945 4.89298937 -20.08984375 4.90234375 C-18.60581055 4.90717773 -18.60581055 4.90717773 -17.09179688 4.91210938 C-16.05087891 4.92048828 -15.00996094 4.92886719 -13.9375 4.9375 C-12.37032227 4.94426758 -12.37032227 4.94426758 -10.77148438 4.95117188 C-8.1809334 4.96300087 -5.59049441 4.97948311 -3 5 C-2.814375 4.0409375 -2.814375 4.0409375 -2.625 3.0625 C-2.41875 2.381875 -2.2125 1.70125 -2 1 C-1.34 0.67 -0.68 0.34 0 0 Z M-40 8 C-40 9.98 -40 11.96 -40 14 C-39.67 14 -39.34 14 -39 14 C-39 12.02 -39 10.04 -39 8 C-39.33 8 -39.66 8 -40 8 Z M-12 10 C-12.33 11.32 -12.66 12.64 -13 14 C-11.68 14 -10.36 14 -9 14 C-9 12.68 -9 11.36 -9 10 C-9.99 10 -10.98 10 -12 10 Z M-4 10 C-3.34 10.66 -2.68 11.32 -2 12 C-2 11.34 -2 10.68 -2 10 C-2.66 10 -3.32 10 -4 10 Z " fill="#3B79BE" transform="translate(274,174)"/>
<path d="M0 0 C21.78 0 43.56 0 66 0 C64 2 64 2 61.80102539 2.21118164 C60.90891357 2.19434326 60.01680176 2.17750488 59.09765625 2.16015625 C58.12505859 2.14919922 57.15246094 2.13824219 56.15039062 2.12695312 C54.62188477 2.09504883 54.62188477 2.09504883 53.0625 2.0625 C51.05345741 2.02805927 49.04433519 1.99792058 47.03515625 1.97265625 C46.1419165 1.95468994 45.24867676 1.93672363 44.32836914 1.91821289 C41.84165311 1.89571029 41.84165311 1.89571029 39 3 C39.99 3.66 40.98 4.32 42 5 C41.67 5.66 41.34 6.32 41 7 C45.31244188 7.05859908 49.62477974 7.09379686 53.9375 7.125 C55.75604492 7.15013672 55.75604492 7.15013672 57.61132812 7.17578125 C64.37865315 7.21246052 70.48567249 6.85392695 77 5 C78.33257016 4.6636287 79.66570225 4.32945166 81 4 C80 7 80 7 77.875 8.125 C72.11212414 9.87891874 66.38274275 10.12774973 60.39086914 10.14526367 C59.30134949 10.15030159 59.30134949 10.15030159 58.18981934 10.15544128 C55.80491386 10.16488377 53.42007922 10.16689164 51.03515625 10.16796875 C49.35713168 10.1711882 47.67910738 10.17455277 46.00108337 10.17805481 C42.48500927 10.18403099 38.96895968 10.18589649 35.45288086 10.18530273 C30.99187978 10.18520171 26.53104002 10.19879853 22.07007694 10.21607494 C18.60120452 10.22731219 15.1323695 10.22921831 11.66348076 10.22869301 C10.02158495 10.22985769 8.37968767 10.23419224 6.73781013 10.24202538 C-6.39599789 10.29877429 -19.34770369 9.86847615 -32 6 C-31.67 5.01 -31.34 4.02 -31 3 C-27.6978772 1.8992924 -25.05916721 1.79372928 -21.58203125 1.68359375 C-19.70161133 1.62075195 -19.70161133 1.62075195 -17.78320312 1.55664062 C-16.47287109 1.51732422 -15.16253906 1.47800781 -13.8125 1.4375 C-12.47720022 1.39429008 -11.14191348 1.350675 -9.80664062 1.30664062 C-6.53786703 1.20043498 -3.26901667 1.09839003 0 1 C0 0.67 0 0.34 0 0 Z " fill="#346BD7" transform="translate(224,212)"/>
<path d="M0 0 C0 0.66 0 1.32 0 2 C1.65 1.67 3.3 1.34 5 1 C4.67 25.09 4.34 49.18 4 74 C-0.05623615 74.81124723 -2.31589721 75.06081378 -6.25 74.625 C-7.12140625 74.53476563 -7.9928125 74.44453125 -8.890625 74.3515625 C-11 74 -11 74 -12 73 C-12.09960152 70.79675026 -12.12799757 68.5902651 -12.12939453 66.38476562 C-12.13114685 65.69372238 -12.13289917 65.00267914 -12.13470459 64.29069519 C-12.13912254 61.99585493 -12.13618533 59.70109111 -12.1328125 57.40625 C-12.13348556 55.81823715 -12.13445559 54.23022441 -12.13571167 52.64221191 C-12.13718857 49.3098045 -12.13503436 45.97742384 -12.13037109 42.64501953 C-12.1246738 38.3640149 -12.12795285 34.08307295 -12.13394356 29.80207062 C-12.1375494 26.52166264 -12.13641048 23.24126963 -12.13381577 19.96086121 C-12.13314656 18.3819325 -12.1339747 16.80300246 -12.13629532 15.22407532 C-12.13882223 13.02109147 -12.13498075 10.81821051 -12.12939453 8.61523438 C-12.12859894 7.35916382 -12.12780334 6.10309326 -12.12698364 4.80895996 C-12 2 -12 2 -11 1 C-7.27655361 0.45949972 -3.75944015 0 0 0 Z M-9 4 C-9.02529373 10.94172388 -9.04284304 17.88343594 -9.05493164 24.82519531 C-9.05996959 27.18815556 -9.06680008 29.55111268 -9.07543945 31.9140625 C-9.08752854 35.30469535 -9.09323359 38.69528709 -9.09765625 42.0859375 C-9.10281754 43.14743011 -9.10797882 44.20892273 -9.11329651 45.30258179 C-9.11337204 46.28344757 -9.11344757 47.26431335 -9.11352539 48.27490234 C-9.115746 49.14094086 -9.11796661 50.00697937 -9.12025452 50.89926147 C-9.13553746 53.0583966 -9.13553746 53.0583966 -8 55 C-7.9283265 57.55157655 -7.90691558 60.07472971 -7.9375 62.625 C-7.94201172 63.33140625 -7.94652344 64.0378125 -7.95117188 64.765625 C-7.96296125 66.51045275 -7.98089676 68.255237 -8 70 C-5.73398135 71.29042763 -5.73398135 71.29042763 -3 72 C-0.72759991 71.04152558 -0.72759991 71.04152558 1 69 C1.58215749 66.03732129 1.58215749 66.03732129 1.45410156 62.60083008 C1.45497772 61.63456947 1.45497772 61.63456947 1.45587158 60.64878845 C1.45308714 58.52181911 1.42198214 56.39625538 1.390625 54.26953125 C1.38316379 52.79409043 1.37747029 51.3186397 1.37347412 49.84318542 C1.35820801 45.96148271 1.3189187 42.08037955 1.2746582 38.19891357 C1.23372602 34.23750927 1.21546755 30.27600799 1.1953125 26.31445312 C1.1524246 18.54269554 1.08416248 10.7714318 1 3 C-2.50935186 3 -5.56484998 3.37542727 -9 4 Z " fill="#54B2E7" transform="translate(283,90)"/>
<path d="M0 0 C0.99 0.33 1.98 0.66 3 1 C2.97679687 2.07378906 2.95359375 3.14757813 2.9296875 4.25390625 C2.91091376 5.69009715 2.8927153 7.12629565 2.875 8.5625 C2.85824219 9.26697266 2.84148437 9.97144531 2.82421875 10.69726562 C2.76465619 17.15980339 3.44137686 22.98180656 8.125 27.8125 C11 30.81818182 11 30.81818182 11 33 C11.61875 33.309375 12.2375 33.61875 12.875 33.9375 C14.25 34.625 15.625 35.3125 17 36 C16.67 37.65 16.34 39.3 16 41 C15.04480469 40.88140625 14.08960938 40.7628125 13.10546875 40.640625 C4.6417573 39.79678537 -2.38125991 39.52949961 -10 44 C-11.96033793 45.74041607 -13.69399081 47.55353309 -15.4296875 49.515625 C-17.72439435 51.68475088 -19.91800516 51.92482939 -23 52 C-24.04170455 48.67907722 -23.9241713 45.95261659 -23.6875 42.5 C-23.62578238 35.29667157 -26.00227754 29.91987796 -30 24 C-31.89311659 22.11993938 -33.87645886 20.62969437 -36 19 C-36.66796875 16.37109375 -36.66796875 16.37109375 -37 14 C-36.43079834 13.9906543 -35.86159668 13.98130859 -35.27514648 13.97167969 C-32.66176347 13.91753831 -30.05008758 13.83398255 -27.4375 13.75 C-26.54224609 13.73582031 -25.64699219 13.72164062 -24.72460938 13.70703125 C-16.40352946 13.40222979 -11.46745984 10.98628475 -5.6875 4.8125 C-2.16520211 1.08260105 -2.16520211 1.08260105 0 0 Z M-1 6 C-1 6.66 -1 7.32 -1 8 C-1.7425 7.9175 -2.485 7.835 -3.25 7.75 C-6.84213479 8.07655771 -7.69607994 9.31209326 -10 12 C-10.62261719 12.80824219 -10.62261719 12.80824219 -11.2578125 13.6328125 C-13.77572563 15.6087533 -15.59898962 15.22644851 -18.75 15.0625 C-23.67643816 14.9249902 -27.38647462 15.32235441 -32 17 C-31.34 18.65 -30.68 20.3 -30 22 C-29.34 22 -28.68 22 -28 22 C-27.67 23.32 -27.34 24.64 -27 26 C-26.34 26 -25.68 26 -25 26 C-24.855625 26.78375 -24.71125 27.5675 -24.5625 28.375 C-24.12201075 30.96421018 -24.12201075 30.96421018 -23 33 C-22.34 33 -21.68 33 -21 33 C-20.67 37.29 -20.34 41.58 -20 46 C-15.64832246 44.9326074 -13.0934109 44.15654174 -10 41 C-7.95703125 39.83203125 -7.95703125 39.83203125 -5.8125 38.8125 C-5.09707031 38.46832031 -4.38164062 38.12414062 -3.64453125 37.76953125 C-2.83048828 37.38861328 -2.83048828 37.38861328 -2 37 C-2 36.34 -2 35.68 -2 35 C-1.01 34.67 -0.02 34.34 1 34 C3.3091666 31.69697131 3.3091666 31.69697131 5 29 C4.2482792 25.92715618 4.2482792 25.92715618 2 24.1875 C-1.09109135 20.80661883 -1 17.43281782 -1 13 C-0.36485174 10.65789079 0.2986716 8.32315031 1 6 C0.34 6 -0.32 6 -1 6 Z " fill="#8DF6F6" transform="translate(306,40)"/>
<path d="M0 0 C10.55808656 -0.55353075 10.55808656 -0.55353075 15 3 C14.67 4.32 14.34 5.64 14 7 C10.37 6.67 6.74 6.34 3 6 C2.67 7.65 2.34 9.3 2 11 C2.66 10.01 3.32 9.02 4 8 C6.4609375 7.84765625 6.4609375 7.84765625 9.375 8.0625 C13.78210504 8.38408858 13.78210504 8.38408858 17.25 5.9375 C17.8275 5.298125 18.405 4.65875 19 4 C22.75343683 4 25.02225706 4.17995753 27.9375 6.625 C29.37148358 9.83037505 29.20006114 12.53227365 29 16 C28.34 16 27.68 16 27 16 C27 16.66 27 17.32 27 18 C22.58937864 19.0257259 20.07369424 19.03684712 16 17 C16 16.01 16 15.02 16 14 C15.01 14 14.02 14 13 14 C12.34 15.32 11.68 16.64 11 18 C2.32567126 18.90954127 2.32567126 18.90954127 -0.7421875 16.8046875 C-2.94208175 14.21427947 -5 11.44578955 -5 8 C-3.5625 4.75 -3.5625 4.75 -2 2 C-1.34 2 -0.68 2 0 2 C0 1.34 0 0.68 0 0 Z M14 10 C15 13 15 13 15 13 Z M4 12 C4 12.66 4 13.32 4 14 C5.32 13.67 6.64 13.34 8 13 C6.68 12.67 5.36 12.34 4 12 Z " fill="#232FAE" transform="translate(192,175)"/>
<path d="M0 0 C0.83964802 2.91995046 1.11875298 5.49321447 1.10006714 8.52728271 C1.09710632 9.42994873 1.09414551 10.33261475 1.09109497 11.26263428 C1.08278656 12.24556458 1.07447815 13.22849487 1.06591797 14.24121094 C1.06124512 15.28233032 1.05657227 16.32344971 1.05175781 17.39611816 C1.0412558 19.65727529 1.02859328 21.91842316 1.01403427 24.1795578 C0.99202385 27.76100321 0.97793624 31.34239576 0.96633911 34.92388916 C0.93273596 45.10721068 0.89117784 55.29044489 0.82861328 65.47363281 C0.79091005 71.70277942 0.76792452 77.93183564 0.75430679 84.16107941 C0.74626382 86.53249886 0.73267095 88.90390634 0.71337509 91.27526093 C0.68682013 94.59735686 0.67899578 97.91902182 0.67529297 101.24121094 C0.65675766 102.703461 0.65675766 102.703461 0.6378479 104.19525146 C0.65765359 110.95241584 1.42711042 116.78948126 5.796875 122.2421875 C6.44140625 122.78101563 7.0859375 123.31984375 7.75 123.875 C8.38421875 124.42929688 9.0184375 124.98359375 9.671875 125.5546875 C15.21528694 128.9960674 21.16823374 129.30773491 27.49609375 129.37890625 C28.28846939 129.39590073 29.08084503 129.4128952 29.89723206 129.43040466 C32.41057525 129.48312717 34.92390787 129.52361383 37.4375 129.5625 C39.94743673 129.60672902 42.45726017 129.65369916 44.96705627 129.70530701 C46.52193071 129.73673984 48.07690282 129.7637812 49.63194275 129.78553772 C54.48845402 129.87683693 59.18859882 130.32623412 64 131 C64 131.33 64 131.66 64 132 C47.17 132 30.34 132 13 132 C12.67 131.01 12.34 130.02 12 129 C11.23042969 128.69964844 10.46085938 128.39929688 9.66796875 128.08984375 C6.45719 126.77826649 5.34145024 125.33919819 3.3125 122.5625 C2.73113281 121.78003906 2.14976562 120.99757813 1.55078125 120.19140625 C-2.25018895 114.82026196 -2.25018895 114.82026196 -2.24723816 110.8923645 C-2.25143265 110.05719803 -2.25562714 109.22203156 -2.25994873 108.36155701 C-2.25432922 107.44834183 -2.24870972 106.53512665 -2.24291992 105.59423828 C-2.24481827 104.62957138 -2.24671661 103.66490448 -2.24867249 102.67100525 C-2.25238675 99.47069248 -2.24165905 96.27060525 -2.23046875 93.0703125 C-2.22927622 90.84129869 -2.22882394 88.61228438 -2.2290802 86.38327026 C-2.22751373 81.70079419 -2.21921738 77.01839438 -2.20581055 72.3359375 C-2.18891885 66.36345907 -2.18499344 60.39106526 -2.18575573 54.41856575 C-2.18548218 49.80802619 -2.17996986 45.19750477 -2.17275429 40.58697128 C-2.16959217 38.38717664 -2.16760602 36.18737995 -2.16686058 33.98758316 C-2.14427921 2.14427921 -2.14427921 2.14427921 0 0 Z " fill="#191EAB" transform="translate(168,82)"/>
<path d="M0 0 C0.33 0 0.66 0 1 0 C1.00146656 0.56800009 1.00293312 1.13600018 1.00444412 1.72121239 C1.04158678 15.57790171 1.10094972 29.43434489 1.18390274 43.29083824 C1.2236171 49.99191761 1.25555463 56.69285862 1.27099609 63.39404297 C1.28617728 69.86514981 1.3206499 76.33589653 1.36830902 82.8068428 C1.38310754 85.27144866 1.39104013 87.73610593 1.39188385 90.20075607 C1.39425973 93.66205665 1.42139168 97.12236706 1.45410156 100.58349609 C1.4490712 101.59482605 1.44404083 102.60615601 1.43885803 103.64813232 C1.57830826 113.23158777 4.2651004 121.0878662 11 128 C11.66 128.33 12.32 128.66 13 129 C13 129.66 13 130.32 13 131 C16.3 131.66 19.6 132.32 23 133 C23 133.66 23 134.32 23 135 C24.05058594 134.98839844 25.10117188 134.97679687 26.18359375 134.96484375 C33.53926481 134.90880054 40.70059996 134.95722857 48 136 C48 136.33 48 136.66 48 137 C20.56652376 139.40530479 20.56652376 139.40530479 9 130 C-1.02012825 119.6017537 -2.170118 108.84191089 -2.11352539 95.07397461 C-2.11367142 94.12656403 -2.11381744 93.17915344 -2.1139679 92.20303345 C-2.11327681 89.10277944 -2.10552241 86.00258714 -2.09765625 82.90234375 C-2.09578921 80.74044325 -2.09436666 78.57854232 -2.09336853 76.41664124 C-2.08956588 70.74991673 -2.07975499 65.08321821 -2.06866455 59.41650391 C-2.05840184 53.62467805 -2.05386053 47.83284797 -2.04882812 42.04101562 C-2.03813056 30.69399906 -2.0210814 19.3470017 -2 8 C-1.34 8 -0.68 8 0 8 C0 5.36 0 2.72 0 0 Z " fill="#1311AB" transform="translate(160,84)"/>
<path d="M0 0 C2.24973447 -0.054138 4.49984383 -0.09285491 6.75 -0.125 C8.00296875 -0.14820313 9.2559375 -0.17140625 10.546875 -0.1953125 C13.72820492 -0.01537302 15.36521896 0.31001418 18 2 C17.34 4.64 16.68 7.28 16 10 C15.01 9.34 14.02 8.68 13 8 C10.39221661 7.70944456 10.39221661 7.70944456 7.42700195 7.77294922 C6.28604568 7.77310028 5.14508942 7.77325134 3.96955872 7.77340698 C2.73823715 7.78372955 1.50691559 7.79405212 0.23828125 7.8046875 C-1.02264847 7.8075174 -2.28357819 7.81034729 -3.5827179 7.81326294 C-6.93160422 7.82256875 -10.28021791 7.84053297 -13.62902832 7.8626709 C-17.04758347 7.88314614 -20.4661668 7.89226824 -23.88476562 7.90234375 C-30.58991919 7.9244182 -37.29494385 7.95790638 -44 8 C-44 7.67 -44 7.34 -44 7 C-43.236875 6.896875 -42.47375 6.79375 -41.6875 6.6875 C-38.97819838 6.27274571 -38.97819838 6.27274571 -37.73144531 4.48681641 C-35.14158476 2.26286678 -32.97735687 2.58124685 -29.609375 2.5234375 C-27.70865234 2.47703125 -27.70865234 2.47703125 -25.76953125 2.4296875 C-24.42969762 2.41072913 -23.08985339 2.39250595 -21.75 2.375 C-19.14055653 2.32368351 -16.5311749 2.26909819 -13.921875 2.2109375 C-12.76268555 2.19337402 -11.60349609 2.17581055 -10.40917969 2.15771484 C-6.88635604 1.99474262 -3.48121112 1.55249403 0 1 C0 0.67 0 0.34 0 0 Z " fill="#2B47EF" transform="translate(229,58)"/>
<path d="M0 0 C0.85098267 -0.00960754 1.70196533 -0.01921509 2.57873535 -0.02911377 C3.49441284 -0.03336365 4.41009033 -0.03761353 5.35351562 -0.04199219 C6.29658569 -0.04769226 7.23965576 -0.05339233 8.21130371 -0.05926514 C10.2051481 -0.06870936 12.19900806 -0.07524682 14.19287109 -0.07910156 C17.2479959 -0.08882971 20.30245432 -0.1198676 23.35742188 -0.15136719 C25.29361579 -0.15789512 27.22981452 -0.16314642 29.16601562 -0.16699219 C30.08169312 -0.17933899 30.99737061 -0.19168579 31.9407959 -0.20440674 C33.2172699 -0.19990509 33.2172699 -0.19990509 34.51953125 -0.1953125 C35.26771118 -0.19895813 36.01589111 -0.20260376 36.78674316 -0.20635986 C39.27215643 0.25657008 40.16564924 1.25369228 41.75976562 3.16113281 C40.75976562 5.16113281 40.75976562 5.16113281 39.03710938 6.01269531 C24.48520777 10.82283975 6.20925245 8.58710175 -8.24023438 4.16113281 C-7.91023437 3.17113281 -7.58023438 2.18113281 -7.24023438 1.16113281 C-4.4960369 0.24640032 -2.83024891 0.02582928 0 0 Z " fill="#2E54EF" transform="translate(200.240234375,213.8388671875)"/>
<path d="M0 0 C0.97710937 -0.01417969 1.95421875 -0.02835938 2.9609375 -0.04296875 C5.625 0.1875 5.625 0.1875 8.625 2.1875 C9.32625 1.878125 10.0275 1.56875 10.75 1.25 C14.85083123 -0.26552459 18.38030855 0.50317066 22.625 1.1875 C22.25 3.125 22.25 3.125 21.625 5.1875 C20.635 5.6825 20.635 5.6825 19.625 6.1875 C20.615 6.5175 21.605 6.8475 22.625 7.1875 C22.625 9.1675 22.625 11.1475 22.625 13.1875 C19.49793041 14.7510348 16.04517557 14.58708487 12.625 14.1875 C11.635 13.5275 10.645 12.8675 9.625 12.1875 C9.295 12.8475 8.965 13.5075 8.625 14.1875 C6.975 14.1875 5.325 14.1875 3.625 14.1875 C3.02767181 11.42485711 2.625 9.02717231 2.625 6.1875 C2.02767181 8.95014289 1.625 11.34782769 1.625 14.1875 C-0.025 14.1875 -1.675 14.1875 -3.375 14.1875 C-3.44847656 13.03121094 -3.44847656 13.03121094 -3.5234375 11.8515625 C-3.59820312 10.84867188 -3.67296875 9.84578125 -3.75 8.8125 C-3.81960937 7.81476563 -3.88921875 6.81703125 -3.9609375 5.7890625 C-4.13863964 3.03241121 -4.13863964 3.03241121 -6.375 1.1875 C-4.64526886 -0.54223114 -2.34983037 0.01541883 0 0 Z M8.625 3.1875 C8.625 5.1675 8.625 7.1475 8.625 9.1875 C8.955 9.1875 9.285 9.1875 9.625 9.1875 C9.625 7.2075 9.625 5.2275 9.625 3.1875 C9.295 3.1875 8.965 3.1875 8.625 3.1875 Z " fill="#3151B4" transform="translate(225.375,178.8125)"/>
<path d="M0 0 C0.66 1.32 1.32 2.64 2 4 C2.64453125 4.59296875 3.2890625 5.1859375 3.953125 5.796875 C6.57556569 8.61950201 7.58856052 11.65611178 8.75 15.25 C8.97042969 15.8996875 9.19085938 16.549375 9.41796875 17.21875 C9.95583998 18.80897798 10.47939178 20.4040371 11 22 C10.34 22 9.68 22 9 22 C9.33 22.70125 9.66 23.4025 10 24.125 C11.09044562 27.26003116 11.15322643 29.70563182 11 33 C11.66 33 12.32 33 13 33 C13 33.99 13 34.98 13 36 C9.37 36 5.74 36 2 36 C0.26133794 31.65334485 -0.11284356 30.28805545 0 26 C-0.33 25.01 -0.66 24.02 -1 23 C-1.66 23 -2.32 23 -3 23 C-2.505 21.515 -2.505 21.515 -2 20 C-1.34 20 -0.68 20 0 20 C0.66 16.7 1.32 13.4 2 10 C1.01 9.67 0.02 9.34 -1 9 C-0.67 6.03 -0.34 3.06 0 0 Z " fill="#5A84F3" transform="translate(247,126)"/>
<path d="M0 0 C5.94 0 11.88 0 18 0 C18 0.99 18 1.98 18 3 C18.66 3 19.32 3 20 3 C21.625 4.5 21.625 4.5 23 6 C23.66 5.34 24.32 4.68 25 4 C25.33 4.99 25.66 5.98 26 7 C25.67 7.66 25.34 8.32 25 9 C24.01 9 23.02 9 22 9 C21.67 10.65 21.34 12.3 21 14 C16.62894249 15.35923265 13.19836977 14.70252362 9 13 C7 10.875 7 10.875 6 9 C5.34 10.65 4.68 12.3 4 14 C2.68 14 1.36 14 0 14 C-0.33 11.69 -0.66 9.38 -1 7 C-2.32 6.67 -3.64 6.34 -5 6 C-4.67 5.34 -4.34 4.68 -4 4 C-3.34 4.33 -2.68 4.66 -2 5 C-1.34 3.35 -0.68 1.7 0 0 Z M13 5 C12.67 6.32 12.34 7.64 12 9 C13.32 9 14.64 9 16 9 C16 7.68 16 6.36 16 5 C15.01 5 14.02 5 13 5 Z " fill="#3C6EC4" transform="translate(249,179)"/>
<path d="M0 0 C0 0.99 0 1.98 0 3 C-7.21395933 9.10411944 -16.03509806 9.31893694 -25.125 9.1875 C-25.97964844 9.18685547 -26.83429688 9.18621094 -27.71484375 9.18554688 C-32.57452092 9.15195464 -37.20836785 8.81159081 -42 8 C-42 7.34 -42 6.68 -42 6 C-44.43387753 4.78306124 -46.41838846 4.68040104 -49.125 4.4375 C-50.03507812 4.35371094 -50.94515625 4.26992187 -51.8828125 4.18359375 C-52.58148438 4.12300781 -53.28015625 4.06242188 -54 4 C-54 3.67 -54 3.34 -54 3 C-41.65415863 2.32292352 -29.36592489 1.8425837 -17 2 C-16.67 1.34 -16.34 0.68 -16 0 C-16 0.66 -16 1.32 -16 2 C-15.18015625 1.77183594 -14.3603125 1.54367188 -13.515625 1.30859375 C-12.43796875 1.02113281 -11.3603125 0.73367187 -10.25 0.4375 C-9.18265625 0.14746094 -8.1153125 -0.14257812 -7.015625 -0.44140625 C-4.15664073 -0.97098494 -2.68402617 -0.98370862 0 0 Z " fill="#3580F0" transform="translate(307,211)"/>
<path d="M0 0 C2.6875 -0.3125 2.6875 -0.3125 5 0 C4.401875 0.45375 3.80375 0.9075 3.1875 1.375 C0.5168022 4.57983736 -0.14720151 7.3830991 -1.22265625 11.359375 C-2.17995909 14.61131833 -3.52928021 17.56341107 -4.9609375 20.62890625 C-6.53030844 24.21013993 -7.74158564 27.90812498 -8.97265625 31.6171875 C-10 34 -10 34 -11.625 35.61328125 C-12.305625 36.29970703 -12.305625 36.29970703 -13 37 C-12.979375 38.093125 -12.95875 39.18625 -12.9375 40.3125 C-13.00267374 44.15775061 -13.59609854 45.18169952 -15.8515625 48.125 C-17.95395262 51.55747367 -18.90448327 55.46307521 -20.0703125 59.29296875 C-21 62 -21 62 -23 65 C-23.33 66.65 -23.66 68.3 -24 70 C-18.555 69.505 -18.555 69.505 -13 69 C-12.75765625 68.21753906 -12.5153125 67.43507813 -12.265625 66.62890625 C-11.76289063 65.11103516 -11.76289063 65.11103516 -11.25 63.5625 C-10.76273438 62.04849609 -10.76273438 62.04849609 -10.265625 60.50390625 C-9 58 -9 58 -6.859375 57.15234375 C-6.24578125 57.10207031 -5.6321875 57.05179688 -5 57 C-5 57.66 -5 58.32 -5 59 C-5.66 59 -6.32 59 -7 59 C-7.19335938 59.68707031 -7.38671875 60.37414062 -7.5859375 61.08203125 C-7.84632813 61.98308594 -8.10671875 62.88414062 -8.375 63.8125 C-8.63023437 64.70582031 -8.88546875 65.59914063 -9.1484375 66.51953125 C-10 69 -10 69 -12 72 C-14.62697064 72.22137393 -17.00893964 72.28162025 -19.625 72.1875 C-20.33140625 72.17396484 -21.0378125 72.16042969 -21.765625 72.14648438 C-23.51074128 72.1111104 -25.25546608 72.05730221 -27 72 C-27.66 70.68 -28.32 69.36 -29 68 C-28.01 68 -27.02 68 -26 68 C-25.87367188 67.27296875 -25.74734375 66.5459375 -25.6171875 65.796875 C-25.02211525 63.10021848 -24.19570187 60.78980443 -23.125 58.25 C-21.82559817 55.08765648 -20.61119897 51.9414631 -19.5625 48.6875 C-16.94857595 40.66204669 -13.79350239 32.83019431 -10.5 25.0625 C-8.14810739 19.50079169 -6.14934562 13.84655972 -4.2109375 8.12890625 C-3.05391732 5.13931539 -1.87365999 2.60096759 0 0 Z " fill="#621ABB" transform="translate(221,92)"/>
<path d="M0 0 C0.99 0.33 1.98 0.66 3 1 C2.97679687 2.07378906 2.95359375 3.14757813 2.9296875 4.25390625 C2.91091376 5.69009715 2.8927153 7.12629565 2.875 8.5625 C2.85824219 9.26697266 2.84148437 9.97144531 2.82421875 10.69726562 C2.78019659 15.47366963 3.47221772 19.42231162 5 24 C5.495 25.485 5.495 25.485 6 27 C1.3712297 25.53828306 1.3712297 25.53828306 -0.25 23.1875 C-2.56586709 16.43288764 -1.94363767 12.50053319 1 6 C0.34 6 -0.32 6 -1 6 C-1 6.66 -1 7.32 -1 8 C-2.65 8 -4.3 8 -6 8 C-6.2475 8.639375 -6.495 9.27875 -6.75 9.9375 C-8 12 -8 12 -10.0625 12.5625 C-10.701875 12.706875 -11.34125 12.85125 -12 13 C-12.33 13.99 -12.66 14.98 -13 16 C-14.19496094 15.98259766 -14.19496094 15.98259766 -15.4140625 15.96484375 C-23.25478989 15.88148443 -23.25478989 15.88148443 -31 17 C-30.67 18.65 -30.34 20.3 -30 22 C-29.34 22 -28.68 22 -28 22 C-27.67 22.99 -27.34 23.98 -27 25 C-26.34 25.33 -25.68 25.66 -25 26 C-24.1484375 27.84765625 -24.1484375 27.84765625 -23.375 30.0625 C-23.11460937 30.79597656 -22.85421875 31.52945313 -22.5859375 32.28515625 C-22.39257812 32.85105469 -22.19921875 33.41695312 -22 34 C-22.66 34.66 -23.32 35.32 -24 36 C-24.36351562 35.19175781 -24.72703125 34.38351563 -25.1015625 33.55078125 C-28.18268973 26.54294464 -28.18268973 26.54294464 -33.3125 21.0625 C-36.443961 18.65928574 -36.4751814 17.74782221 -37 14 C-36.43079834 13.9906543 -35.86159668 13.98130859 -35.27514648 13.97167969 C-32.66176347 13.91753831 -30.05008758 13.83398255 -27.4375 13.75 C-26.54224609 13.73582031 -25.64699219 13.72164062 -24.72460938 13.70703125 C-16.40352946 13.40222979 -11.46745984 10.98628475 -5.6875 4.8125 C-2.16520211 1.08260105 -2.16520211 1.08260105 0 0 Z " fill="#A2EDEC" transform="translate(306,40)"/>
<path d="M0 0 C0.66 0 1.32 0 2 0 C3.48203779 2.96407559 3.11920826 5.62079165 3.11352539 8.92822266 C3.11367142 9.64052536 3.11381744 10.35282806 3.1139679 11.0867157 C3.11327011 13.44586206 3.10548397 15.80492989 3.09765625 18.1640625 C3.0957916 19.79788164 3.09436792 21.43170134 3.09336853 23.06552124 C3.08954709 27.3694818 3.07971998 31.67340871 3.06866455 35.97735596 C3.05844242 40.36771184 3.05386919 44.75807315 3.04882812 49.1484375 C3.03809739 57.76564046 3.02102543 66.38281604 3 75 C2.34 75 1.68 75 1 75 C1 76.98 1 78.96 1 81 C0.67 81 0.34 81 0 81 C0 54.27 0 27.54 0 0 Z " fill="#1615F1" transform="translate(162,94)"/>
<path d="M0 0 C1.2684375 0.5878125 1.2684375 0.5878125 2.5625 1.1875 C3.84567892 5.03703676 3.62893637 8.13488135 3.5625 12.1875 C3.2325 12.1875 2.9025 12.1875 2.5625 12.1875 C2.500625 11.094375 2.43875 10.00125 2.375 8.875 C1.97274834 5.03911426 1.97274834 5.03911426 -0.98828125 3.45703125 C-2.20064453 2.82861328 -2.20064453 2.82861328 -3.4375 2.1875 C-3.44114563 2.85433807 -3.44479126 3.52117615 -3.44854736 4.20822144 C-3.49054371 11.18473448 -3.56000904 18.16060012 -3.64501953 25.13671875 C-3.6731454 27.73593655 -3.69440136 30.33523855 -3.70849609 32.93457031 C-3.73004097 36.68337857 -3.77675377 40.43118334 -3.828125 44.1796875 C-3.82996796 45.90685501 -3.82996796 45.90685501 -3.83184814 47.66891479 C-3.95459463 54.51870794 -4.46965089 61.35835302 -8.4375 67.1875 C-10.57574463 67.95309448 -10.57574463 67.95309448 -12.4375 68.1875 C-11.963125 67.445 -11.48875 66.7025 -11 65.9375 C-8.62777704 61.76238759 -8.31379227 58.42592981 -8.31152344 53.65625 C-8.30771667 52.54830078 -8.30390991 51.44035156 -8.29998779 50.29882812 C-8.29896057 49.10708984 -8.29793335 47.91535156 -8.296875 46.6875 C-8.27855589 44.16665757 -8.25898642 41.64582396 -8.23828125 39.125 C-8.20924336 35.14828495 -8.18749812 31.17214071 -8.18701172 27.1953125 C-8.18368806 23.35885892 -8.14920982 19.52372534 -8.109375 15.6875 C-8.1164447 14.49576172 -8.1235144 13.30402344 -8.13079834 12.07617188 C-8.00835745 3.81208779 -8.00835745 3.81208779 -4.89550781 0.40625 C-2.4375 -0.8125 -2.4375 -0.8125 0 0 Z " fill="#47ADD8" transform="translate(318.4375,135.8125)"/>
<path d="M0 0 C0.99 0.33 1.98 0.66 3 1 C2.67 2.32 2.34 3.64 2 5 C1.34 5 0.68 5 0 5 C-0.33 6.32 -0.66 7.64 -1 9 C-2.10107995 5.69676014 -1.86709271 4.29495231 -1 1 C-0.67 0.67 -0.34 0.34 0 0 Z M-2 9 C-1.3125 10.8125 -1.3125 10.8125 -1 13 C-2.4375 14.75 -2.4375 14.75 -4 16 C-1.525 16.99 -1.525 16.99 1 18 C0.40984815 23.50808397 -0.56663769 28.64878069 -2 34 C-6.95 34.495 -6.95 34.495 -12 35 C-12.37535244 29.49483083 -12.37535244 29.49483083 -10.61328125 27.171875 C-8.66514248 24.54919908 -7.93668471 22.12228238 -7 19 C-5.81886326 15.06287753 -4.66683698 12.15171644 -2 9 Z " fill="#7B18F5" transform="translate(209,127)"/>
<path d="M0 0 C2.0625 1.375 2.0625 1.375 4 3.8125 C6.1516865 6.48580746 8.11154363 7.70013287 11.0625 9.375 C11.3925 10.035 11.7225 10.695 12.0625 11.375 C14.61191373 11.68741371 17.06611513 11.88803421 19.625 12 C20.69137695 12.05800781 20.69137695 12.05800781 21.77929688 12.1171875 C23.53992425 12.21171783 25.30117728 12.29445817 27.0625 12.375 C25.7425 13.695 24.4225 15.015 23.0625 16.375 C24.7125 16.375 26.3625 16.375 28.0625 16.375 C28.0625 16.705 28.0625 17.035 28.0625 17.375 C19.13268562 17.83821804 12.08918177 17.5178035 4.0625 13.375 C4.0625 12.715 4.0625 12.055 4.0625 11.375 C3.505625 11.16875 2.94875 10.9625 2.375 10.75 C-0.93353232 8.78276457 -2.6530628 6.48437286 -4.9375 3.375 C-4.9375 2.385 -4.9375 1.395 -4.9375 0.375 C-1.9375 -0.625 -1.9375 -0.625 0 0 Z " fill="#2431E8" transform="translate(168.9375,201.625)"/>
<path d="M0 0 C1.98 0.495 1.98 0.495 4 1 C4 13.21 4 25.42 4 38 C3.34 37.34 2.68 36.68 2 36 C1.34 36.66 0.68 37.32 0 38 C-1.18334928 30.54302119 -1.14814635 23.16299374 -1.125 15.625 C-1.12886719 14.34238281 -1.13273437 13.05976563 -1.13671875 11.73828125 C-1.13542969 10.51753906 -1.13414062 9.29679688 -1.1328125 8.0390625 C-1.13168457 6.92740723 -1.13055664 5.81575195 -1.12939453 4.67041016 C-1 2 -1 2 0 0 Z " fill="#2BBCF7" transform="translate(315,138)"/>
<path d="M0 0 C0.33 0 0.66 0 1 0 C1.0093457 0.66418945 1.01869141 1.32837891 1.02832031 2.01269531 C0.77101448 23.49218154 0.77101448 23.49218154 10.6328125 41.79296875 C12.00750704 43.11071545 12.00750704 43.11071545 14 44 C14 44.66 14 45.32 14 46 C17.3 46.66 20.6 47.32 24 48 C24 48.66 24 49.32 24 50 C25.57587891 49.98259766 25.57587891 49.98259766 27.18359375 49.96484375 C34.53926481 49.90880054 41.70059996 49.95722857 49 51 C49 51.33 49 51.66 49 52 C21.56652376 54.40530479 21.56652376 54.40530479 10 45 C0.45245545 35.09217075 -1.21348621 24.95611994 -1.1015625 11.73046875 C-0.95466499 7.78118575 -0.51380054 3.91772915 0 0 Z " fill="#2034BD" transform="translate(159,169)"/>
<path d="M0 0 C2.475 0.99 2.475 0.99 5 2 C5 2.66 5 3.32 5 4 C5.66 4 6.32 4 7 4 C9.03165952 8.33420699 9.52060632 12.28596212 10 17 C13.63 17 17.26 17 21 17 C21 16.01 21 15.02 21 14 C20.34 14 19.68 14 19 14 C18.34 10.37 17.68 6.74 17 3 C17.66 3 18.32 3 19 3 C21.45855991 8.26322777 23.56176509 13.36691325 25 19 C19.46142664 20.36692395 14.6348436 19.61100714 9 19 C7.02 14.38 5.04 9.76 3 5 C-2.28 5 -7.56 5 -13 5 C-13 4.01 -13 3.02 -13 2 C-9.04 2 -5.08 2 -1 2 C-0.67 1.34 -0.34 0.68 0 0 Z " fill="#6173C1" transform="translate(239,145)"/>
<path d="M0 0 C2.24973447 -0.054138 4.49984383 -0.09285491 6.75 -0.125 C8.00296875 -0.14820313 9.2559375 -0.17140625 10.546875 -0.1953125 C13.72820492 -0.01537302 15.36521896 0.31001418 18 2 C17.34 4.64 16.68 7.28 16 10 C15.01 9.34 14.02 8.68 13 8 C10.38590855 7.82854185 7.88130326 7.76766568 5.26953125 7.8046875 C4.51911057 7.8075174 3.76868988 7.81034729 2.99552917 7.81326294 C0.60102325 7.82444938 -1.79310731 7.84955072 -4.1875 7.875 C-5.81184355 7.88503181 -7.43619297 7.89415731 -9.06054688 7.90234375 C-13.040509 7.92438363 -17.02019088 7.9589026 -21 8 C-21 7.67 -21 7.34 -21 7 C-19.92878906 6.95101562 -18.85757813 6.90203125 -17.75390625 6.8515625 C-16.35674361 6.77654706 -14.9596095 6.7009987 -13.5625 6.625 C-12.85544922 6.5940625 -12.14839844 6.563125 -11.41992188 6.53125 C-9.60760812 6.42719371 -7.80182012 6.22080108 -6 6 C-5.67 5.34 -5.34 4.68 -5 4 C-2.66255706 3.53193355 -0.30260921 3.17330206 2.0625 2.875 C3.35285156 2.70742188 4.64320313 2.53984375 5.97265625 2.3671875 C7.47119141 2.18542969 7.47119141 2.18542969 9 2 C6.03 1.67 3.06 1.34 0 1 C0 0.67 0 0.34 0 0 Z " fill="#3159EA" transform="translate(229,58)"/>
<path d="M0 0 C1.875 1.1875 1.875 1.1875 3 3 C2.73904456 5.67479327 2.1995243 7.60095141 1 10 C-0.98 10 -2.96 10 -5 10 C-5 9.34 -5 8.68 -5 8 C-5.66 8 -6.32 8 -7 8 C-7.33 7.01 -7.66 6.02 -8 5 C-8.66 4.67 -9.32 4.34 -10 4 C-10.2475 4.61875 -10.495 5.2375 -10.75 5.875 C-12.20628639 8.35068687 -13.37812506 8.95125002 -16 10 C-16 9.01 -16 8.02 -16 7 C-16.99 7 -17.98 7 -19 7 C-19.33 5.35 -19.66 3.7 -20 2 C-19.25234375 2.02320313 -18.5046875 2.04640625 -17.734375 2.0703125 C-16.74953125 2.08835938 -15.7646875 2.10640625 -14.75 2.125 C-13.77546875 2.14820313 -12.8009375 2.17140625 -11.796875 2.1953125 C-7.34534398 1.8844514 -4.62720248 -0.59323109 0 0 Z " fill="#273DB1" transform="translate(216,181)"/>
<path d="M0 0 C1.32 0 2.64 0 4 0 C4.20157715 0.55461914 4.4031543 1.10923828 4.61083984 1.68066406 C5.52976718 4.20467929 6.45234535 6.72734503 7.375 9.25 C7.69210938 10.12269531 8.00921875 10.99539062 8.3359375 11.89453125 C8.6453125 12.73886719 8.9546875 13.58320312 9.2734375 14.453125 C9.55622559 15.22817383 9.83901367 16.00322266 10.13037109 16.80175781 C10.97586759 18.93899825 11.94026029 20.96172668 13 23 C11 25 11 25 9.12060547 25.22705078 C8.37697754 25.21657715 7.63334961 25.20610352 6.8671875 25.1953125 C6.06152344 25.18886719 5.25585938 25.18242187 4.42578125 25.17578125 C3.58402344 25.15902344 2.74226562 25.14226562 1.875 25.125 C0.60076172 25.11146484 0.60076172 25.11146484 -0.69921875 25.09765625 C-2.79959884 25.07405647 -4.89983444 25.03818483 -7 25 C-7 24.34 -7 23.68 -7 23 C-1.39 23 4.22 23 10 23 C9.05125 20.7725 8.1025 18.545 7.125 16.25 C6.82996582 15.55551758 6.53493164 14.86103516 6.23095703 14.14550781 C4.19152626 8.15648417 4.19152626 8.15648417 0 4 C-0.09796875 4.54527344 -0.1959375 5.09054688 -0.296875 5.65234375 C-1.45999743 11.51809047 -3.38539903 16.63118344 -6 22 C-6.33 22 -6.66 22 -7 22 C-7.2657967 17.31358452 -6.51809884 14.15362223 -4.625 9.875 C-4.18414062 8.86179687 -3.74328125 7.84859375 -3.2890625 6.8046875 C-2.23491686 4.51112214 -1.15014472 2.24654435 0 0 Z " fill="#5B4EC1" transform="translate(227,112)"/>
<path d="M0 0 C-1 3 -1 3 -3.125 4.125 C-10.96261402 6.51036079 -18.90733159 6.12993989 -27.02734375 6.09765625 C-28.38497363 6.0957884 -29.74260419 6.09436623 -31.10023499 6.09336853 C-34.65282084 6.08957222 -38.20536504 6.07976696 -41.75793457 6.06866455 C-45.39135169 6.05838801 -49.02477562 6.0538576 -52.65820312 6.04882812 C-59.77215233 6.03814177 -66.88607343 6.02110049 -74 6 C-74 5.67 -74 5.34 -74 5 C-62.64764338 3.94746362 -51.39053108 3.89686642 -40 4 C-40 3.67 -40 3.34 -40 3 C-38.84383179 3.01571045 -38.84383179 3.01571045 -37.66430664 3.03173828 C-34.13040502 3.07362863 -30.5965559 3.0994306 -27.0625 3.125 C-25.24395508 3.15013672 -25.24395508 3.15013672 -23.38867188 3.17578125 C-15.33954584 3.21940795 -7.49497966 0 0 0 Z " fill="#4C6AB6" transform="translate(305,216)"/>
<path d="M0 0 C0.83778992 0.00141495 1.67557983 0.0028299 2.53875732 0.00428772 C5.20816657 0.00987428 7.8774912 0.02242431 10.546875 0.03515625 C12.35937379 0.04017299 14.17187389 0.04473559 15.984375 0.04882812 C20.42190748 0.05983931 24.85937691 0.0770947 29.296875 0.09765625 C29.296875 0.42765625 29.296875 0.75765625 29.296875 1.09765625 C27.73175171 1.1116748 27.73175171 1.1116748 26.13500977 1.12597656 C22.22638836 1.16615341 18.31853138 1.23198557 14.41040039 1.30517578 C12.72593074 1.33322609 11.04133336 1.35451915 9.35668945 1.36865234 C-2.81113893 1.22894767 -2.81113893 1.22894767 -14.09399414 5.24902344 C-15.703125 6.09765625 -15.703125 6.09765625 -18.703125 6.09765625 C-18.950625 6.67515625 -19.198125 7.25265625 -19.453125 7.84765625 C-20.703125 10.09765625 -20.703125 10.09765625 -22.828125 12.16015625 C-25.05083571 14.00758952 -25.05083571 14.00758952 -24.703125 17.09765625 C-25.693125 17.09765625 -26.683125 17.09765625 -27.703125 17.09765625 C-28.0125 18.23203125 -28.321875 19.36640625 -28.640625 20.53515625 C-29.703125 24.09765625 -29.703125 24.09765625 -30.703125 25.09765625 C-30.93387582 26.44512709 -31.11465563 27.8014319 -31.265625 29.16015625 C-31.41 30.45953125 -31.554375 31.75890625 -31.703125 33.09765625 C-32.033125 33.09765625 -32.363125 33.09765625 -32.703125 33.09765625 C-33.72755966 24.52275874 -31.4510663 18.23968659 -26.703125 11.09765625 C-19.11496458 2.57603166 -11.12114767 -0.07081465 0 0 Z " fill="#2432A3" transform="translate(191.703125,58.90234375)"/>
<path d="M0 0 C0.66 0 1.32 0 2 0 C2 0.66 2 1.32 2 2 C3.65 1.67 5.3 1.34 7 1 C6.83923477 1.52378235 6.67846954 2.0475647 6.51283264 2.58721924 C5.866535 5.62792761 5.83559529 8.49475834 5.79467773 11.60449219 C5.78477814 12.25856552 5.77487854 12.91263885 5.76467896 13.58653259 C5.73319149 15.73994374 5.70835728 17.89337692 5.68359375 20.046875 C5.66301319 21.54332032 5.64201643 23.03975996 5.62062073 24.53619385 C5.56551382 28.46852009 5.51605453 32.40089781 5.46777344 36.33331299 C5.41747514 40.34855716 5.36183261 44.36372689 5.30664062 48.37890625 C5.19919832 56.25254116 5.09772264 64.12623849 5 72 C4.67 72 4.34 72 4 72 C2.76148541 49.0051321 2.8966505 26.01990958 3 3 C1.68 2.67 0.36 2.34 -1 2 C-0.67 1.34 -0.34 0.68 0 0 Z " fill="#5EC6E2" transform="translate(281,90)"/>
<path d="M0 0 C1.41279706 -0.16301505 2.83108128 -0.2788797 4.25 -0.375 C5.43335938 -0.47941406 5.43335938 -0.47941406 6.640625 -0.5859375 C9 0 9 0 11.11328125 2.55078125 C13.07137517 6.13048505 14.58660161 9.72561226 15.9375 13.5625 C16.45124089 14.97807595 16.96557283 16.39343752 17.48046875 17.80859375 C17.7336084 18.51097168 17.98674805 19.21334961 18.24755859 19.93701172 C19.73947979 24.02745108 21.34131385 28.07603887 22.921875 32.1328125 C23.27765625 33.07898438 23.6334375 34.02515625 24 35 C24.41765625 36.04929688 24.8353125 37.09859375 25.265625 38.1796875 C25.62914062 39.57574219 25.62914062 39.57574219 26 41 C25.34 41.99 24.68 42.98 24 44 C23.72285156 43.30132812 23.44570312 42.60265625 23.16015625 41.8828125 C22.79792969 40.97273438 22.43570313 40.06265625 22.0625 39.125 C21.70285156 38.22007812 21.34320313 37.31515625 20.97265625 36.3828125 C20.05098738 34.03862333 20.05098738 34.03862333 19 32 C18.95977609 29.6670134 18.95679753 27.33293334 19 25 C18.34 25 17.68 25 17 25 C13.24477955 18.02601916 11.10199743 10.59952916 9 3 C8.38511719 3.09539062 7.77023438 3.19078125 7.13671875 3.2890625 C5.92435547 3.45535156 5.92435547 3.45535156 4.6875 3.625 C3.88699219 3.74101563 3.08648437 3.85703125 2.26171875 3.9765625 C0 4 0 4 -3 2 C-2.01 2 -1.02 2 0 2 C0 1.34 0 0.68 0 0 Z " fill="#5D5DB9" transform="translate(226,91)"/>
<path d="M0 0 C0 0.66 0 1.32 0 2 C-0.71774597 2.01030746 -1.43549194 2.02061493 -2.17498779 2.03123474 C-8.94324538 2.12926383 -15.71142165 2.23178596 -22.47953415 2.33933926 C-25.95898084 2.39447368 -29.43843607 2.44787825 -32.91796875 2.49731445 C-36.91936197 2.55424124 -40.92060269 2.61871887 -44.921875 2.68359375 C-46.79392609 2.70866249 -46.79392609 2.70866249 -48.70379639 2.73423767 C-49.86469788 2.75418289 -51.02559937 2.77412811 -52.22167969 2.79467773 C-53.24316101 2.81022202 -54.26464233 2.8257663 -55.31707764 2.84178162 C-57.69399728 2.98195428 -59.72566899 3.32393052 -62 4 C-62 3.01 -62 2.02 -62 1 C-58.91602183 -0.02799272 -56.69380172 -0.16114137 -53.45874023 -0.22119141 C-52.32423935 -0.24436432 -51.18973846 -0.26753723 -50.02085876 -0.29141235 C-48.79581131 -0.3112619 -47.57076385 -0.33111145 -46.30859375 -0.3515625 C-45.05240738 -0.37471527 -43.79622101 -0.39786804 -42.50196838 -0.42172241 C-39.84482785 -0.46936867 -37.18773638 -0.51506911 -34.53051758 -0.55761719 C-31.12168298 -0.61250969 -27.71308411 -0.67633835 -24.30445766 -0.74279213 C-21.05592123 -0.80484099 -17.80725653 -0.85909297 -14.55859375 -0.9140625 C-13.33152206 -0.93796051 -12.10445038 -0.96185852 -10.8401947 -0.98648071 C-9.70884598 -1.0033493 -8.57749725 -1.0202179 -7.41186523 -1.03759766 C-5.91320168 -1.06305161 -5.91320168 -1.06305161 -4.38426208 -1.08901978 C-2 -1 -2 -1 0 0 Z " fill="#2441B4" transform="translate(244,66)"/>
<path d="M0 0 C1.0625 1.8125 1.0625 1.8125 2 4 C1.67 4.99 1.34 5.98 1 7 C-0.65 7.33 -2.3 7.66 -4 8 C-4 9.32 -4 10.64 -4 12 C-3.67 11.34 -3.34 10.68 -3 10 C-2.01 10 -1.02 10 0 10 C0 10.66 0 11.32 0 12 C0.66 11.67 1.32 11.34 2 11 C2.65213292 8.97536745 2.65213292 8.97536745 3 7 C3.66 7 4.32 7 5 7 C5.33 7.99 5.66 8.98 6 10 C2.98790554 14.63974798 -1.00549182 18.57842028 -6 21 C-6.33 20.01 -6.66 19.02 -7 18 C-6.01 17.67 -5.02 17.34 -4 17 C-4.33 16.01 -4.66 15.02 -5 14 C-5.58007812 14.144375 -6.16015625 14.28875 -6.7578125 14.4375 C-11.26659675 15.50889428 -15.33054247 16.23945936 -20 16 C-20 15.34 -20 14.68 -20 14 C-19.40832031 13.91363281 -18.81664062 13.82726562 -18.20703125 13.73828125 C-12.53263821 12.72929456 -9.94000282 11.39028886 -6 7 C-5.278125 6.855625 -4.55625 6.71125 -3.8125 6.5625 C-3.214375 6.376875 -2.61625 6.19125 -2 6 C-0.6954344 3.00384054 -0.6954344 3.00384054 0 0 Z " fill="#329DE7" transform="translate(311,197)"/>
<path d="M0 0 C1.9375 1.625 1.9375 1.625 3 4 C3.1875 7.75 3.1875 7.75 3 11 C2.34 11 1.68 11 1 11 C1 11.66 1 12.32 1 13 C-3.41062136 14.0257259 -5.92630576 14.03684712 -10 12 C-10 11.01 -10 10.02 -10 9 C-10.99 9 -11.98 9 -13 9 C-13.66 10.32 -14.32 11.64 -15 13 C-18.3 13 -21.6 13 -25 13 C-24.34 12.01 -23.68 11.02 -23 10 C-22.67 9.34 -22.34 8.68 -22 8 C-20.68 8.33 -19.36 8.66 -18 9 C-18 9.66 -18 10.32 -18 11 C-14.83333333 9.16666667 -14.83333333 9.16666667 -13 6 C-12.67 6.33 -12.34 6.66 -12 7 C-11.34 6.34 -10.68 5.68 -10 5 C-9.67 6.32 -9.34 7.64 -9 9 C-8.34 9 -7.68 9 -7 9 C-7 9.66 -7 10.32 -7 11 C-5.02 11 -3.04 11 -1 11 C-0.32326553 7.59679066 -0.32326553 7.59679066 0 4 C-1.95633975 1.58878141 -1.95633975 1.58878141 -5.625 1.875 C-7.295625 1.936875 -7.295625 1.936875 -9 2 C-9 1.34 -9 0.68 -9 0 C-5.8168485 -1.59157575 -3.38676935 -0.77242108 0 0 Z " fill="#203CA7" transform="translate(218,180)"/>
<path d="M0 0 C0.33 0 0.66 0 1 0 C1.05093732 6.26217148 1.08583284 12.52428901 1.10986328 18.78662109 C1.11988705 20.91457109 1.13350961 23.04250744 1.15087891 25.17041016 C1.17528692 28.23864118 1.18651961 31.3066892 1.1953125 34.375 C1.20563507 35.31802979 1.21595764 36.26105957 1.22659302 37.23266602 C1.22877829 50.25688826 1.22877829 50.25688826 -2.625 55 C-3.305625 55.495 -3.305625 55.495 -4 56 C-4 53.69 -4 51.38 -4 49 C-3.34 49 -2.68 49 -2 49 C-2.2784375 47.205625 -2.2784375 47.205625 -2.5625 45.375 C-2.95780913 42.82745226 -2.98707231 40.92589957 -2.54101562 38.36914062 C-1.92035507 34.50401624 -1.66988283 30.66139483 -1.46484375 26.7578125 C-1.42186661 25.98944061 -1.37888947 25.22106873 -1.33460999 24.42941284 C-1.19914195 21.99476796 -1.06825079 19.55990231 -0.9375 17.125 C-0.84600624 15.46612909 -0.75421247 13.80727469 -0.66210938 12.1484375 C-0.43793483 8.09914118 -0.21786242 4.04964063 0 0 Z " fill="#40A2CD" transform="translate(321,149)"/>
<path d="M0 0 C6.0546875 -0.1953125 6.0546875 -0.1953125 8 0 C8.66 0.66 9.32 1.32 10 2 C9.01 2.33 8.02 2.66 7 3 C7 3.66 7 4.32 7 5 C7.66 5.33 8.32 5.66 9 6 C8.67 6.66 8.34 7.32 8 8 C7.34 8 6.68 8 6 8 C5.34 9.98 4.68 11.96 4 14 C2.68 14 1.36 14 0 14 C-0.33 11.69 -0.66 9.38 -1 7 C-2.32 6.67 -3.64 6.34 -5 6 C-4.67 5.34 -4.34 4.68 -4 4 C-3.34 4.33 -2.68 4.66 -2 5 C-1.34 3.35 -0.68 1.7 0 0 Z " fill="#3964B7" transform="translate(249,179)"/>
<path d="M0 0 C0 0.99 0 1.98 0 3 C-6.39163272 8.40830461 -13.80891642 9.20625804 -21.95703125 9.265625 C-24 9 -24 9 -28 7 C-23.38 6.67 -18.76 6.34 -14 6 C-14.33 4.68 -14.66 3.36 -15 2 C-13.25364835 1.46706165 -11.50272348 0.94909337 -9.75 0.4375 C-8.77546875 0.14746094 -7.8009375 -0.14257812 -6.796875 -0.44140625 C-4.03756068 -0.99249836 -2.6087176 -0.93789609 0 0 Z " fill="#3789EA" transform="translate(307,211)"/>
<path d="M0 0 C3.4733513 0.86651435 6.9677071 0.79802583 10.52832031 0.86132812 C11.72325104 0.88894226 11.72325104 0.88894226 12.94232178 0.91711426 C15.48653966 0.97571644 18.03082505 1.02854536 20.57519531 1.08007812 C23.91386143 1.14826619 27.2523421 1.22204674 30.59082031 1.29882812 C31.72405731 1.31919128 31.72405731 1.31919128 32.88018799 1.33996582 C37.75911105 1.45211876 42.49103379 1.90490827 47.32519531 2.58007812 C47.32519531 2.91007813 47.32519531 3.24007812 47.32519531 3.58007812 C30.49519531 3.58007812 13.66519531 3.58007812 -3.67480469 3.58007812 C-4.00480469 2.59007812 -4.33480469 1.60007813 -4.67480469 0.58007812 C-1.67480469 -0.41992188 -1.67480469 -0.41992188 0 0 Z " fill="#243FB8" transform="translate(184.6748046875,210.419921875)"/>
<path d="M0 0 C9.41002278 -0.18451025 9.41002278 -0.18451025 14 1 C13.67 3.97 13.34 6.94 13 10 C8.38 10 3.76 10 -1 10 C-0.67 9.34 -0.34 8.68 0 8 C0.66 8 1.32 8 2 8 C2.4640625 7.0409375 2.4640625 7.0409375 2.9375 6.0625 C4 4 4 4 5 3 C2.525 2.01 2.525 2.01 0 1 C0 0.67 0 0.34 0 0 Z " fill="#6A45F3" transform="translate(220,137)"/>
<path d="M0 0 C0 0.99 0 1.98 0 3 C-2.31 3.33 -4.62 3.66 -7 4 C-7.33 26.44 -7.66 48.88 -8 72 C-6.68 72 -5.36 72 -4 72 C-4 72.66 -4 73.32 -4 74 C-5.65 73.67 -7.3 73.34 -9 73 C-9.02312524 63.76002448 -9.04091601 54.52005886 -9.05181217 45.28006077 C-9.05704061 40.99000085 -9.06413753 36.69996067 -9.07543945 32.40991211 C-9.08626975 28.273206 -9.09227714 24.13651892 -9.09487724 19.99979973 C-9.09673124 18.41807696 -9.10035136 16.83635529 -9.10573006 15.25464058 C-9.1129424 13.04677162 -9.11399086 10.83898227 -9.11352539 8.63110352 C-9.115746 7.37201675 -9.11796661 6.11292999 -9.12025452 4.81568909 C-9 2 -9 2 -8 1 C-5.34536879 0.54540142 -2.67810862 0.29756762 0 0 Z " fill="#6DA8C8" transform="translate(280,90)"/>
<path d="M0 0 C0.33 0.66 0.66 1.32 1 2 C0.34 2 -0.32 2 -1 2 C-1.19335938 2.68707031 -1.38671875 3.37414062 -1.5859375 4.08203125 C-1.84632813 4.98308594 -2.10671875 5.88414062 -2.375 6.8125 C-2.75785156 8.15248047 -2.75785156 8.15248047 -3.1484375 9.51953125 C-4 12 -4 12 -6 15 C-8.62697064 15.22137393 -11.00893964 15.28162025 -13.625 15.1875 C-14.33140625 15.17396484 -15.0378125 15.16042969 -15.765625 15.14648438 C-17.51074128 15.1111104 -19.25546608 15.05730221 -21 15 C-21.66 13.68 -22.32 12.36 -23 11 C-22.01 11 -21.02 11 -20 11 C-19.87625 10.278125 -19.7525 9.55625 -19.625 8.8125 C-19.0095069 6.04278106 -18.11555626 3.6029646 -17 1 C-16.67 1 -16.34 1 -16 1 C-15.73747375 5.33168317 -16.70756464 8.8803623 -18 13 C-12.555 12.505 -12.555 12.505 -7 12 C-6.61908203 10.82630859 -6.61908203 10.82630859 -6.23046875 9.62890625 C-5.88628906 8.61699219 -5.54210937 7.60507813 -5.1875 6.5625 C-4.85105469 5.55316406 -4.51460937 4.54382813 -4.16796875 3.50390625 C-3.78253906 2.67761719 -3.39710938 1.85132813 -3 1 C-2.01 0.67 -1.02 0.34 0 0 Z " fill="#5B26B2" transform="translate(215,149)"/>
<path d="M0 0 C-0.33 0.99 -0.66 1.98 -1 3 C-1.99 3.33 -2.98 3.66 -4 4 C-3.01 5.485 -3.01 5.485 -2 7 C-1.34 5.68 -0.68 4.36 0 3 C1.65 3.33 3.3 3.66 5 4 C5 5.98 5 7.96 5 10 C1.78548731 11.60725635 -1.43612536 11.05748185 -5 11 C-7.09350689 7.5980513 -7.17942163 4.94727588 -7 1 C-4.53721199 -0.231394 -2.7204945 -0.07159196 0 0 Z " fill="#2655C2" transform="translate(243,182)"/>
<path d="M0 0 C0.33 0 0.66 0 1 0 C1 22.77 1 45.54 1 69 C-4.625 70.125 -4.625 70.125 -8 69 C-5.69 68.01 -3.38 67.02 -1 66 C-0.67 44.22 -0.34 22.44 0 0 Z " fill="#74B6CF" transform="translate(286,95)"/>
<path d="M0 0 C0.99 0.33 1.98 0.66 3 1 C2.67 1.66 2.34 2.32 2 3 C5.18490007 3.2773501 5.18490007 3.2773501 8 1 C9.32 1 10.64 1 12 1 C12 1.66 12 2.32 12 3 C10.35 3.33 8.7 3.66 7 4 C7 4.66 7 5.32 7 6 C6.34 6 5.68 6 5 6 C5 6.66 5 7.32 5 8 C4.01 8.495 4.01 8.495 3 9 C2.34786708 11.02463255 2.34786708 11.02463255 2 13 C0.68 13.33 -0.64 13.66 -2 14 C-2 12.35 -2 10.7 -2 9 C-2.99 9 -3.98 9 -5 9 C-5 8.34 -5 7.68 -5 7 C-4.34 6.67 -3.68 6.34 -3 6 C-2.29788106 4.34795544 -1.63028587 2.68076231 -1 1 C-0.67 0.67 -0.34 0.34 0 0 Z " fill="#222AE4" transform="translate(169,69)"/>
<path d="M0 0 C0.66 0 1.32 0 2 0 C2 0.66 2 1.32 2 2 C8.6 2.33 15.2 2.66 22 3 C20.68 4.32 19.36 5.64 18 7 C19.65 7 21.3 7 23 7 C23 7.33 23 7.66 23 8 C20.79194476 8.0544452 18.58349446 8.09299283 16.375 8.125 C15.14523438 8.14820313 13.91546875 8.17140625 12.6484375 8.1953125 C9.05683959 8.0030428 6.33338825 7.30258556 3 6 C3 5.34 3 4.68 3 4 C2.01 3.67 1.02 3.34 0 3 C0 2.01 0 1.02 0 0 Z " fill="#2940ED" transform="translate(174,211)"/>
<path d="M0 0 C12.87 0 25.74 0 39 0 C34.77304882 4.22695118 28.23392426 3.18417627 22.60351562 3.18945312 C14.98851053 3.11351019 7.52171511 2.12025544 0 1 C0 0.67 0 0.34 0 0 Z " fill="#284EC9" transform="translate(199,219)"/>
<path d="M0 0 C1.7074998 1.28062485 3.37373596 2.61767557 5 4 C5 4.66 5 5.32 5 6 C5.928125 6.4640625 5.928125 6.4640625 6.875 6.9375 C8.25 7.625 9.625 8.3125 11 9 C10.67 10.65 10.34 12.3 10 14 C8.27014758 13.88487847 6.54111249 13.75744323 4.8125 13.625 C3.36810547 13.52058594 3.36810547 13.52058594 1.89453125 13.4140625 C-1.01508938 12.99784147 -3.32890774 12.20125904 -6 11 C-6 10.67 -6 10.34 -6 10 C-1.545 9.505 -1.545 9.505 3 9 C2.44271087 5.65626525 1.64826111 2.96687001 0 0 Z " fill="#9DF1F0" transform="translate(312,67)"/>
<path d="M0 0 C1.2065625 0.0309375 1.2065625 0.0309375 2.4375 0.0625 C2.4375 0.7225 2.4375 1.3825 2.4375 2.0625 C4.0875 2.3925 5.7375 2.7225 7.4375 3.0625 C7.1075 4.3825 6.7775 5.7025 6.4375 7.0625 C5.7775 7.0625 5.1175 7.0625 4.4375 7.0625 C4.4375 9.3725 4.4375 11.6825 4.4375 14.0625 C2.7875 14.0625 1.1375 14.0625 -0.5625 14.0625 C-0.63597656 12.90621094 -0.63597656 12.90621094 -0.7109375 11.7265625 C-0.78570312 10.72367188 -0.86046875 9.72078125 -0.9375 8.6875 C-1.00710937 7.68976563 -1.07671875 6.69203125 -1.1484375 5.6640625 C-1.32613964 2.90741121 -1.32613964 2.90741121 -3.5625 1.0625 C-2.5625 0.0625 -2.5625 0.0625 0 0 Z " fill="#284AA3" transform="translate(222.5625,178.9375)"/>
<path d="M0 0 C0.33 0 0.66 0 1 0 C1.95830798 6.49949203 2.21578053 12.87163982 2.25 19.4375 C2.270625 20.42298828 2.29125 21.40847656 2.3125 22.42382812 C2.3440815 28.3808887 2.25689419 34.79218636 -1 40 C-3.10839844 40.73999023 -3.10839844 40.73999023 -5 41 C-4.525625 40.2575 -4.05125 39.515 -3.5625 38.75 C-0.93221631 34.12070071 -0.8126717 29.85602988 -0.68359375 24.609375 C-0.66281265 23.90476135 -0.64203156 23.20014771 -0.62062073 22.47418213 C-0.55546163 20.23288319 -0.49639752 17.99147136 -0.4375 15.75 C-0.39428274 14.22655103 -0.35066743 12.70311329 -0.30664062 11.1796875 C-0.19981509 7.45324409 -0.09845361 3.72667506 0 0 Z " fill="#529FC1" transform="translate(311,163)"/>
<path d="M0 0 C0.66 0.33 1.32 0.66 2 1 C3.01956492 6.57737063 3.04067572 11.80237996 2.66015625 17.4375 C2.59144569 18.58581299 2.59144569 18.58581299 2.52134705 19.75732422 C2.3752897 22.17203197 2.21907764 24.58595399 2.0625 27 C1.96091282 28.64969811 1.85999514 30.2994376 1.75976562 31.94921875 C1.51424069 35.9666652 1.25961465 39.98344045 1 44 C0.67 44 0.34 44 0 44 C-0.16738578 38.05533775 -0.32796884 32.11054603 -0.48217773 26.16552734 C-0.53563266 24.14203921 -0.59096466 22.11859977 -0.64819336 20.09521484 C-0.73000696 17.19118757 -0.80512562 14.28705356 -0.87890625 11.3828125 C-0.90594131 10.47443634 -0.93297638 9.56606018 -0.96083069 8.63015747 C-0.98092697 7.78943695 -1.00102325 6.94871643 -1.02172852 6.08251953 C-1.04171402 5.34083527 -1.06169952 4.599151 -1.08229065 3.83499146 C-1 2 -1 2 0 0 Z " fill="#31AFDF" transform="translate(319,140)"/>
<path d="M0 0 C2.475 0.99 2.475 0.99 5 2 C5 2.66 5 3.32 5 4 C5.66 4 6.32 4 7 4 C7.66 5.65 8.32 7.3 9 9 C8.34 9.66 7.68 10.32 7 11 C5 10 5 10 3 5 C-2.28 5 -7.56 5 -13 5 C-13 4.01 -13 3.02 -13 2 C-9.04 2 -5.08 2 -1 2 C-0.67 1.34 -0.34 0.68 0 0 Z " fill="#5863D9" transform="translate(239,145)"/>
<path d="M0 0 C2.6875 -0.3125 2.6875 -0.3125 5 0 C4.401875 0.45375 3.80375 0.9075 3.1875 1.375 C0.52187166 4.573754 -0.14360239 7.36707606 -1.21484375 11.3359375 C-2.2114549 14.71747384 -3.60400521 17.82172965 -5.08203125 21.015625 C-6.14363935 23.31050549 -7.08734315 25.64230313 -8 28 C-8.99 28 -9.98 28 -11 28 C-9.2195528 22.56495065 -7.38176705 17.15084199 -5.5 11.75 C-5.0978125 10.58984375 -4.695625 9.4296875 -4.28125 8.234375 C-3.08716423 5.22003652 -1.89523556 2.62982299 0 0 Z " fill="#5B34BA" transform="translate(221,92)"/>
<path d="M0 0 C0.66 0 1.32 0 2 0 C2 14.52 2 29.04 2 44 C1.67 44 1.34 44 1 44 C0.97494385 43.30962646 0.9498877 42.61925293 0.92407227 41.90795898 C0.8073434 38.75098591 0.68496822 35.59425543 0.5625 32.4375 C0.52318359 31.35146484 0.48386719 30.26542969 0.44335938 29.14648438 C0.27028152 24.76628334 0.07274235 20.49707276 -0.5625 16.15625 C-1.04608423 12.66753521 -0.88745624 9.56480615 -0.5625 6.0625 C-0.46066406 4.91910156 -0.35882813 3.77570313 -0.25390625 2.59765625 C-0.17011719 1.74042969 -0.08632812 0.88320312 0 0 Z " fill="#120DC5" transform="translate(159,149)"/>
<path d="M0 0 C0.66 1.32 1.32 2.64 2 4 C2.928125 4.804375 2.928125 4.804375 3.875 5.625 C7.15750796 9.29368537 10 14.97159386 10 20 C9.34 20 8.68 20 8 20 C7.34 18.02 6.68 16.04 6 14 C5.34 14 4.68 14 4 14 C4 14.66 4 15.32 4 16 C3.01 15.67 2.02 15.34 1 15 C1.33 13.35 1.66 11.7 2 10 C1.01 9.67 0.02 9.34 -1 9 C-0.67 6.03 -0.34 3.06 0 0 Z " fill="#5D7FDF" transform="translate(247,126)"/>
<path d="M0 0 C0.33 0 0.66 0 1 0 C1.0093457 0.65895264 1.01869141 1.31790527 1.02832031 1.99682617 C1.23336137 19.89305075 1.23336137 19.89305075 6 37 C3 36 3 36 1.375 33 C-2.5956162 22.77202529 -1.39516567 10.63813824 0 0 Z " fill="#171BAE" transform="translate(159,169)"/>
<path d="M0 0 C0.99 0 1.98 0 3 0 C3.39832031 1.07378906 3.79664063 2.14757812 4.20703125 3.25390625 C4.74209782 4.69013758 5.27725914 6.12633362 5.8125 7.5625 C6.07353516 8.26697266 6.33457031 8.97144531 6.60351562 9.69726562 C6.86455078 10.39658203 7.12558594 11.09589844 7.39453125 11.81640625 C7.65443848 12.51652832 7.9143457 13.21665039 8.18212891 13.93798828 C8.97531616 15.93776726 9.88725118 17.8419088 10.82421875 19.77734375 C12 23 12 23 11.1875 25.4375 C10.795625 25.953125 10.40375 26.46875 10 27 C9.58427734 25.95199219 9.58427734 25.95199219 9.16015625 24.8828125 C8.79792969 23.97273438 8.43570313 23.06265625 8.0625 22.125 C7.52302734 20.76761719 7.52302734 20.76761719 6.97265625 19.3828125 C6.05098738 17.03862333 6.05098738 17.03862333 5 15 C4.95977609 12.6670134 4.95679753 10.33293334 5 8 C4.34 8 3.68 8 3 8 C0 2.25 0 2.25 0 0 Z " fill="#606BC3" transform="translate(240,108)"/>
<path d="M0 0 C1.0625 1.8125 1.0625 1.8125 2 4 C1.67 4.99 1.34 5.98 1 7 C0.21625 7.061875 -0.5675 7.12375 -1.375 7.1875 C-2.24125 7.455625 -3.1075 7.72375 -4 8 C-4.268125 8.78375 -4.53625 9.5675 -4.8125 10.375 C-6.19752336 13.43663059 -6.74192516 13.62405455 -9.75 14.8125 C-13.2386004 15.94565852 -16.31692149 16.27623089 -20 16 C-20 15.34 -20 14.68 -20 14 C-19.40832031 13.91363281 -18.81664062 13.82726562 -18.20703125 13.73828125 C-12.53263821 12.72929456 -9.94000282 11.39028886 -6 7 C-5.278125 6.855625 -4.55625 6.71125 -3.8125 6.5625 C-3.214375 6.376875 -2.61625 6.19125 -2 6 C-0.6954344 3.00384054 -0.6954344 3.00384054 0 0 Z " fill="#4494D1" transform="translate(311,197)"/>
<path d="M0 0 C1.32 0.99 2.64 1.98 4 3 C3.125 7.75 3.125 7.75 2 10 C0.02 10 -1.96 10 -4 10 C-4 9.34 -4 8.68 -4 8 C-4.66 8 -5.32 8 -6 8 C-6.33 6.68 -6.66 5.36 -7 4 C-5.68 3.67 -4.36 3.34 -3 3 C-3 3.66 -3 4.32 -3 5 C-1.35 5.33 0.3 5.66 2 6 C2 5.34 2 4.68 2 4 C1.34 4 0.68 4 0 4 C-0.33 3.01 -0.66 2.02 -1 1 C-0.67 0.67 -0.34 0.34 0 0 Z " fill="#2B43C3" transform="translate(215,181)"/>
<path d="M0 0 C0.33 0 0.66 0 1 0 C1 2.97 1 5.94 1 9 C1.66 9 2.32 9 3 9 C3.309375 10.093125 3.61875 11.18625 3.9375 12.3125 C4.58337897 14.55407994 5.2623117 16.7869351 6 19 C1.3712297 17.53828306 1.3712297 17.53828306 -0.25 15.1875 C-2.19737315 9.50766166 -2.3961138 5.54101317 0 0 Z " fill="#93F4F0" transform="translate(306,48)"/>
<path d="M0 0 C0 0.33 0 0.66 0 1 C-5.61 1.66 -11.22 2.32 -17 3 C-16.67 3.66 -16.34 4.32 -16 5 C-18.31 5 -20.62 5 -23 5 C-23 4.01 -23 3.02 -23 2 C-21.68 2 -20.36 2 -19 2 C-19 1.34 -19 0.68 -19 0 C-12.43507888 -0.78441153 -6.53162622 -1.10914408 0 0 Z " fill="#2F54E5" transform="translate(241,60)"/>
<path d="M0 0 C2.4375 0.6875 2.4375 0.6875 4.4375 1.6875 C4.4375 2.3475 4.4375 3.0075 4.4375 3.6875 C1.7975 3.3575 -0.8425 3.0275 -3.5625 2.6875 C-3.5625 3.3475 -3.5625 4.0075 -3.5625 4.6875 C-2.5725 4.3575 -1.5825 4.0275 -0.5625 3.6875 C1.44625442 3.96321139 3.44928687 4.28985737 5.4375 4.6875 C3.875 6.25 3.875 6.25 1.4375 7.6875 C-2.3125 7.375 -2.3125 7.375 -5.5625 6.6875 C-5.75 4.3125 -5.75 4.3125 -5.5625 1.6875 C-2.5625 -0.3125 -2.5625 -0.3125 0 0 Z " fill="#468ED4" transform="translate(285.5625,182.3125)"/>
<path d="M0 0 C0.66 1.32 1.32 2.64 2 4 C-10.87 4 -23.74 4 -37 4 C-37 3.67 -37 3.34 -37 3 C-24.65415863 2.32292352 -12.36592489 1.8425837 0 2 C0 1.34 0 0.68 0 0 Z " fill="#3B7CE7" transform="translate(290,211)"/>
<path d="M0 0 C0.99 0.33 1.98 0.66 3 1 C2.67 2.32 2.34 3.64 2 5 C1.34 5 0.68 5 0 5 C-0.33 6.32 -0.66 7.64 -1 9 C-2.10107995 5.69676014 -1.86709271 4.29495231 -1 1 C-0.67 0.67 -0.34 0.34 0 0 Z M-2 9 C-1.3125 10.6875 -1.3125 10.6875 -1 13 C-2.3125 15.5625 -2.3125 15.5625 -4 18 C-4.66 18.99 -5.32 19.98 -6 21 C-7 19 -7 19 -6.51171875 17.125 C-6.23972656 16.42375 -5.96773437 15.7225 -5.6875 15 C-5.42324219 14.29875 -5.15898437 13.5975 -4.88671875 12.875 C-4 11 -4 11 -2 9 Z " fill="#7919EA" transform="translate(209,127)"/>
<path d="M0 0 C2.97 0.99 5.94 1.98 9 3 C9 3.66 9 4.32 9 5 C7.906875 5.28875 6.81375 5.5775 5.6875 5.875 C1.95986155 6.81893204 1.95986155 6.81893204 -1 9 C-1.99 8.01 -2.98 7.02 -4 6 C-3.34 5.67 -2.68 5.34 -2 5 C-1.27840576 3.35636866 -0.60648579 1.68949614 0 0 Z " fill="#212EE3" transform="translate(173,65)"/>
<path d="M0 0 C0 0.99 0 1.98 0 3 C-2.8125 5.25 -2.8125 5.25 -6 7 C-6.99 6.67 -7.98 6.34 -9 6 C-9.33 5.34 -9.66 4.68 -10 4 C-4.75 -1.425 -4.75 -1.425 0 0 Z " fill="#3797F5" transform="translate(307,211)"/>
<path d="M0 0 C2.64 0 5.28 0 8 0 C8.80967438 2.91482778 9.21845993 4.46113217 8.0625 7.3125 C7.711875 7.869375 7.36125 8.42625 7 9 C6.67 8.01 6.34 7.02 6 6 C4.35 6 2.7 6 1 6 C1.33 5.01 1.66 4.02 2 3 C1.01 2.67 0.02 2.34 -1 2 C-0.67 1.34 -0.34 0.68 0 0 Z " fill="#3B71C3" transform="translate(259,179)"/>
<path d="M0 0 C10.55808656 -0.55353075 10.55808656 -0.55353075 15 3 C14.67 4.32 14.34 5.64 14 7 C11.03 6.505 11.03 6.505 8 6 C8.66 5.01 9.32 4.02 10 3 C3.91591528 2.80185739 3.91591528 2.80185739 -2 4 C-2 3.34 -2 2.68 -2 2 C-1.34 2 -0.68 2 0 2 C0 1.34 0 0.68 0 0 Z " fill="#253296" transform="translate(192,175)"/>
<path d="M0 0 C6.3 -0.48461538 6.3 -0.48461538 9.4375 1.6875 C11 4 11 4 11 9 C7.7 8.67 4.4 8.34 1 8 C1 7.34 1 6.68 1 6 C6.75 5.875 6.75 5.875 9 7 C9 6.34 9 5.68 9 5 C8.34 5 7.68 5 7 5 C7 4.34 7 3.68 7 3 C3.94736336 2.01879536 2.05263664 2.01879536 -1 3 C-0.67 2.01 -0.34 1.02 0 0 Z " fill="#4582B8" transform="translate(281,179)"/>
<path d="M0 0 C2 2 2 2 3.125 5.6875 C4.97713496 10.95600824 8.72619982 13.64266228 13 17 C13.66 17.66 14.32 18.32 15 19 C10.53949235 18.4902277 8.20784461 17.1276485 5 14 C2.08479267 10.25415826 0.11504981 7.28855785 -0.3125 2.5 C-0.209375 1.675 -0.10625 0.85 0 0 Z " fill="#1D2DA8" transform="translate(167,192)"/>
<path d="M0 0 C1.9375 1.625 1.9375 1.625 3 4 C3.1875 7.75 3.1875 7.75 3 11 C2.34 11 1.68 11 1 11 C0.67 11.66 0.34 12.32 0 13 C-0.85537909 10.43386274 -1.01396599 9.06517464 -0.4375 6.375 C-0.293125 5.59125 -0.14875 4.8075 0 4 C-1.95633975 1.58878141 -1.95633975 1.58878141 -5.625 1.875 C-7.295625 1.936875 -7.295625 1.936875 -9 2 C-9 1.34 -9 0.68 -9 0 C-5.8168485 -1.59157575 -3.38676935 -0.77242108 0 0 Z " fill="#2B4096" transform="translate(218,180)"/>
<path d="M0 0 C0.66 0 1.32 0 2 0 C4.45855991 5.26322777 6.56176509 10.36691325 8 16 C7.34 16 6.68 16 6 16 C6 15.34 6 14.68 6 14 C5.34 14 4.68 14 4 14 C4 13.01 4 12.02 4 11 C3.34 11 2.68 11 2 11 C1.34 7.37 0.68 3.74 0 0 Z " fill="#557ED0" transform="translate(256,148)"/>
<path d="M0 0 C0.33 0 0.66 0 1 0 C1.05784708 4.12494151 1.09354407 8.24977944 1.125 12.375 C1.15013672 14.1384375 1.15013672 14.1384375 1.17578125 15.9375 C1.18222656 17.05898437 1.18867188 18.18046875 1.1953125 19.3359375 C1.20578613 20.37282715 1.21625977 21.4097168 1.22705078 22.47802734 C1 25 1 25 -1 27 C-2.98356483 27.71408334 -4.98315437 28.38617742 -7 29 C-7.33 28.01 -7.66 27.02 -8 26 C-5.69 25.01 -3.38 24.02 -1 23 C-0.67 15.41 -0.34 7.82 0 0 Z " fill="#49B8E3" transform="translate(284,136)"/>
<path d="M0 0 C2 3 2 3 2 5 C2.66 5 3.32 5 4 5 C4.66 8.3 5.32 11.6 6 15 C5.34 15 4.68 15 4 15 C3.67 15.66 3.34 16.32 3 17 C2.855625 15.906875 2.71125 14.81375 2.5625 13.6875 C2.11711896 10.06877013 2.11711896 10.06877013 1 7 C0.01 7.33 -0.98 7.66 -2 8 C-1.125 1.125 -1.125 1.125 0 0 Z " fill="#5D70ED" transform="translate(241,111)"/>
<path d="M0 0 C3.20575987 0.34347427 3.97516759 0.9707854 6.125 3.5 C6.74375 4.325 7.3625 5.15 8 6 C8.66 6.33 9.32 6.66 10 7 C10 7.66 10 8.32 10 9 C11.134375 9.268125 12.26875 9.53625 13.4375 9.8125 C15.2009375 10.4003125 15.2009375 10.4003125 17 11 C17.33 11.99 17.66 12.98 18 14 C10.99463255 12.38337674 5.03482373 7.89808229 0.9375 2.0625 C0.628125 1.381875 0.31875 0.70125 0 0 Z " fill="#222BA6" transform="translate(163,206)"/>
<path d="M0 0 C-0.875 3.875 -0.875 3.875 -2 5 C-4.67058851 5.14115161 -7.32432238 5.04247107 -10 5 C-10.66 3.68 -11.32 2.36 -12 1 C-9.98177083 1.03255208 -7.96354167 1.06510417 -5.9453125 1.09765625 C-3.67210333 0.98353932 -2.2885712 0 0 0 Z " fill="#3C81C6" transform="translate(291,188)"/>
<path d="M0 0 C0.33 0.99 0.66 1.98 1 3 C0.01 4.485 0.01 4.485 -1 6 C-1.60951592 8.57351167 -2.00496766 11.05340235 -2.25 13.6875 C-2.4975 14.450625 -2.745 15.21375 -3 16 C-5.546875 17.14453125 -5.546875 17.14453125 -8 18 C-7.04832179 15.37241047 -6.08902879 12.74805507 -5.125 10.125 C-4.85558594 9.37863281 -4.58617187 8.63226563 -4.30859375 7.86328125 C-2.2265625 2.2265625 -2.2265625 2.2265625 0 0 Z " fill="#7032E8" transform="translate(219,105)"/>
<path d="M0 0 C0.33 1.32 0.66 2.64 1 4 C0.01 4.33 -0.98 4.66 -2 5 C-2.74259349 7.31029085 -3.411438 9.645752 -4 12 C-4.33 12.33 -4.66 12.66 -5 13 C-5.23075082 14.34747084 -5.41153063 15.70377565 -5.5625 17.0625 C-5.706875 18.361875 -5.85125 19.66125 -6 21 C-6.33 21 -6.66 21 -7 21 C-7.74486684 13.22027969 -6.36345901 7.54518852 -2 1 C-1.34 0.67 -0.68 0.34 0 0 Z " fill="#1C22A7" transform="translate(166,71)"/>
<path d="M0 0 C0.33 0.66 0.66 1.32 1 2 C-0.32 3.32 -1.64 4.64 -3 6 C-4.32 5.34 -5.64 4.68 -7 4 C-7 2.68 -7 1.36 -7 0 C-4.30234372 -1.34882814 -2.84835666 -0.80338265 0 0 Z " fill="#AAE9E7" transform="translate(341,43)"/>
<path d="M0 0 C2.24973447 -0.054138 4.49984383 -0.09285491 6.75 -0.125 C8.00296875 -0.14820313 9.2559375 -0.17140625 10.546875 -0.1953125 C13.72820492 -0.01537302 15.36521896 0.31001418 18 2 C17.34 4.64 16.68 7.28 16 10 C15.34 9.34 14.68 8.68 14 8 C14 6.35 14 4.7 14 3 C9.38 2.34 4.76 1.68 0 1 C0 0.67 0 0.34 0 0 Z " fill="#4163A6" transform="translate(229,58)"/>
<path d="M0 0 C3.63 0 7.26 0 11 0 C11 1.32 11 2.64 11 4 C7.37 4 3.74 4 0 4 C0 2.66666667 0 1.33333333 0 0 Z " fill="#3465F2" transform="translate(232,61)"/>
<path d="M0 0 C0.79921875 0.00902344 1.5984375 0.01804688 2.421875 0.02734375 C3.02515625 0.03894531 3.6284375 0.05054688 4.25 0.0625 C4.25 1.0525 4.25 2.0425 4.25 3.0625 C-0.04 3.0625 -4.33 3.0625 -8.75 3.0625 C-8.75 2.4025 -8.75 1.7425 -8.75 1.0625 C-5.75519083 0.1901588 -3.11424089 -0.04579766 0 0 Z " fill="#328BF8" transform="translate(288.75,214.9375)"/>
<path d="M0 0 C1.8871875 0.061875 1.8871875 0.061875 3.8125 0.125 C3.8125 1.115 3.8125 2.105 3.8125 3.125 C2.74 3.269375 1.6675 3.41375 0.5625 3.5625 C-2.10412949 3.96249442 -4.60149729 4.40091924 -7.1875 5.125 C-7.1875 4.135 -7.1875 3.145 -7.1875 2.125 C-4.09861478 0.06574319 -3.47814073 -0.1140374 0 0 Z " fill="#303AB3" transform="translate(198.1875,176.875)"/>
<path d="M0 0 C0.33 0 0.66 0 1 0 C0.56699236 6.81987029 -0.90787824 11.91643021 -4 18 C-4.33 18 -4.66 18 -5 18 C-5.28773432 13.20922365 -4.44169975 9.99382444 -2.5 5.625 C-2.0359375 4.56539063 -1.571875 3.50578125 -1.09375 2.4140625 C-0.55234375 1.21910156 -0.55234375 1.21910156 0 0 Z " fill="#5837BF" transform="translate(225,116)"/>
<path d="M0 0 C1.32 0.99 2.64 1.98 4 3 C4.66 2.34 5.32 1.68 6 1 C6.33 1.99 6.66 2.98 7 4 C6.67 4.66 6.34 5.32 6 6 C5.01 6 4.02 6 3 6 C2.67 6.99 2.34 7.98 2 9 C1.34 9 0.68 9 0 9 C-1.125 2.25 -1.125 2.25 0 0 Z " fill="#296BCC" transform="translate(268,182)"/>
<path d="M0 0 C1.20518172 3.61554517 0.38382025 4.75195322 -1.1640625 8.08203125 C-2.42738217 10.98058245 -3.18996395 13.94678718 -4 17 C-4.144375 16.401875 -4.28875 15.80375 -4.4375 15.1875 C-4.8872439 13.43849596 -5.42892341 11.71322977 -6 10 C-5.1875 7.375 -5.1875 7.375 -4 5 C-3.34 4.67 -2.68 4.34 -2 4 C-0.86649466 1.98330173 -0.86649466 1.98330173 0 0 Z " fill="#6A35E9" transform="translate(223,118)"/>
<path d="M0 0 C0.99 0.33 1.98 0.66 3 1 C2.67 6.28 2.34 11.56 2 17 C1.67 17 1.34 17 1 17 C1 12.38 1 7.76 1 3 C-0.65 3.33 -2.3 3.66 -4 4 C-2.68 2.68 -1.36 1.36 0 0 Z " fill="#A0DDD8" transform="translate(306,40)"/>
<path d="M0 0 C0.66 0 1.32 0 2 0 C2 0.66 2 1.32 2 2 C3.11375 2.103125 4.2275 2.20625 5.375 2.3125 C7.169375 2.6528125 7.169375 2.6528125 9 3 C9.99 4.485 9.99 4.485 11 6 C7.71303767 6.79953138 6.28976808 7.09658936 3 6 C3 5.34 3 4.68 3 4 C2.01 3.67 1.02 3.34 0 3 C0 2.01 0 1.02 0 0 Z " fill="#2C38F5" transform="translate(174,211)"/>
<path d="M0 0 C2.31 0.33 4.62 0.66 7 1 C7 1.33 7 1.66 7 2 C5.35 2.33 3.7 2.66 2 3 C1.67 3.99 1.34 4.98 1 6 C0.02308143 7.68029994 -0.97388051 9.34928604 -2 11 C-2.95465783 8.83032311 -3.14401212 7.43671207 -2.3984375 5.17578125 C-1.64129615 3.4315257 -0.82390802 1.71372869 0 0 Z " fill="#6849EC" transform="translate(222,94)"/>
<path d="M0 0 C1.1446875 0.1546875 1.1446875 0.1546875 2.3125 0.3125 C1.735 0.786875 1.1575 1.26125 0.5625 1.75 C-2.07680406 4.75587407 -3.29642795 7.6970247 -4.7578125 11.38671875 C-5.6875 13.3125 -5.6875 13.3125 -7.6875 14.3125 C-5.14788732 0.59859155 -5.14788732 0.59859155 0 0 Z " fill="#5B41B5" transform="translate(223.6875,91.6875)"/>
<path d="M0 0 C0.33 0 0.66 0 1 0 C1.46192125 4.92715996 -0.1724717 8.50732625 -2 13 C-3.32 12.67 -4.64 12.34 -6 12 C-6 11.34 -6 10.68 -6 10 C-5.01 10 -4.02 10 -3 10 C-2.87625 9.278125 -2.7525 8.55625 -2.625 7.8125 C-2.0095069 5.04278106 -1.11555626 2.6029646 0 0 Z " fill="#521CA0" transform="translate(198,150)"/>
<path d="M0 0 C3.63 0 7.26 0 11 0 C11.33 0.66 11.66 1.32 12 2 C7.93631321 2.77403558 4.13574827 3.0984702 0 3 C0 2.01 0 1.02 0 0 Z " fill="#5647D0" transform="translate(226,147)"/>
<path d="M0 0 C2.4375 1.25 2.4375 1.25 3.4375 4.25 C3.56531786 6.92394964 3.48141871 9.57095857 3.4375 12.25 C3.1075 12.25 2.7775 12.25 2.4375 12.25 C2.31375 11.13625 2.19 10.0225 2.0625 8.875 C1.7909187 5.21896323 1.7909187 5.21896323 -0.5625 3.25 C-3.14604218 3.08312552 -3.14604218 3.08312552 -5.5625 3.25 C-5.2325 2.26 -4.9025 1.27 -4.5625 0.25 C-2.5625 -0.75 -2.5625 -0.75 0 0 Z " fill="#4EACC7" transform="translate(318.5625,135.75)"/>
<path d="M0 0 C0.66 0 1.32 0 2 0 C2.33 0.99 2.66 1.98 3 3 C1.63671875 5.0078125 1.63671875 5.0078125 -0.3125 7.125 C-0.94800781 7.82882813 -1.58351563 8.53265625 -2.23828125 9.2578125 C-4 11 -4 11 -6 12 C-4.78273716 8.5354827 -3.56145682 6.56145682 -1 4 C-0.28552357 1.89667109 -0.28552357 1.89667109 0 0 Z " fill="#4096CD" transform="translate(314,204)"/>
<path d="M0 0 C3.3 0 6.6 0 10 0 C9.67 0.99 9.34 1.98 9 3 C6.03 3 3.06 3 0 3 C0 2.01 0 1.02 0 0 Z " fill="#4224E1" transform="translate(216,147)"/>
<path d="M0 0 C2.20827308 3.31240961 2.69719195 5.06349537 3 9 C2.0625 12.875 2.0625 12.875 1 16 C0.67 16 0.34 16 0 16 C-0.19389096 13.5211787 -0.38040123 11.04219069 -0.5625 8.5625 C-0.61857422 7.85544922 -0.67464844 7.14839844 -0.73242188 6.41992188 C-0.86190993 4.61572163 -0.93521608 2.80768048 -1 1 C-0.67 0.67 -0.34 0.34 0 0 Z " fill="#98F8FB" transform="translate(284,73)"/>
<path d="M0 0 C1.79244141 0.01740234 1.79244141 0.01740234 3.62109375 0.03515625 C5.41740234 0.04869141 5.41740234 0.04869141 7.25 0.0625 C8.17683594 0.07410156 9.10367188 0.08570313 10.05859375 0.09765625 C9.41921875 0.40703125 8.77984375 0.71640625 8.12109375 1.03515625 C6.12248554 1.93217255 6.12248554 1.93217255 5.05859375 3.09765625 C1.62109375 3.28515625 1.62109375 3.28515625 -1.94140625 3.09765625 C-2.60140625 2.43765625 -3.26140625 1.77765625 -3.94140625 1.09765625 C-2.94140625 0.09765625 -2.94140625 0.09765625 0 0 Z " fill="#2E5CF5" transform="translate(226.94140625,61.90234375)"/>
<path d="M0 0 C-1 3 -1 3 -3.125 4.1875 C-6.51418301 5.14531259 -9.49471861 5.13746202 -13 5 C-13 4.34 -13 3.68 -13 3 C-12.37351562 2.86722656 -11.74703125 2.73445312 -11.1015625 2.59765625 C-10.28429687 2.42105469 -9.46703125 2.24445313 -8.625 2.0625 C-7.81289063 1.88847656 -7.00078125 1.71445313 -6.1640625 1.53515625 C-3.88723554 0.9721142 -2.3530537 0 0 0 Z " fill="#4285C4" transform="translate(305,216)"/>
<path d="M0 0 C0 0.66 0 1.32 0 2 C-1.65 2.33 -3.3 2.66 -5 3 C-5 3.66 -5 4.32 -5 5 C-5.66 5 -6.32 5 -7 5 C-7 5.66 -7 6.32 -7 7 C-9 8.625 -9 8.625 -11 10 C-10.42562214 6.12294944 -8.57271945 3.88456423 -6 1 C-4 0 -4 0 0 0 Z " fill="#2027A1" transform="translate(181,70)"/>
<path d="M0 0 C1.32 0 2.64 0 4 0 C4 0.99 4 1.98 4 3 C0.78548731 4.60725635 -2.43612536 4.05748185 -6 4 C-6.33 3.34 -6.66 2.68 -7 2 C-4.69 2 -2.38 2 0 2 C0 1.34 0 0.68 0 0 Z " fill="#3358A2" transform="translate(244,189)"/>
<path d="M0 0 C1.65 0.33 3.3 0.66 5 1 C5 1.66 5 2.32 5 3 C5.99 2.67 6.98 2.34 8 2 C7.67 2.99 7.34 3.98 7 5 C4.03 5 1.06 5 -2 5 C-1.34 4.01 -0.68 3.02 0 2 C0 1.34 0 0.68 0 0 Z " fill="#26339E" transform="translate(195,188)"/>
<path d="M0 0 C-0.33 0.99 -0.66 1.98 -1 3 C-1.99 3.33 -2.98 3.66 -4 4 C-4 4.99 -4 5.98 -4 7 C-4.99 7 -5.98 7 -7 7 C-7 5.02 -7 3.04 -7 1 C-4.53721199 -0.231394 -2.7204945 -0.07159196 0 0 Z " fill="#325DC9" transform="translate(243,182)"/>
<path d="M0 0 C1.65 0 3.3 0 5 0 C5.33 1.65 5.66 3.3 6 5 C5.01 5 4.02 5 3 5 C2.01 5.66 1.02 6.32 0 7 C0 4.69 0 2.38 0 0 Z " fill="#2346CA" transform="translate(224,181)"/>
<path d="M0 0 C0.33 0 0.66 0 1 0 C1 1.98 1 3.96 1 6 C2.98 6 4.96 6 7 6 C3.86501708 7.85776765 1.62528568 8.20140476 -2 8 C-2.125 5.125 -2.125 5.125 -2 2 C-1.34 1.34 -0.68 0.68 0 0 Z " fill="#771BE8" transform="translate(199,154)"/>
<path d="M0 0 C0.99 0 1.98 0 3 0 C3.12375 0.804375 3.2475 1.60875 3.375 2.4375 C3.684375 3.7059375 3.684375 3.7059375 4 5 C4.66 5.33 5.32 5.66 6 6 C6.625 8.5625 6.625 8.5625 7 11 C5.68 11 4.36 11 3 11 C2.67 8.03 2.34 5.06 2 2 C1.01 1.67 0.02 1.34 -1 1 C-0.67 0.67 -0.34 0.34 0 0 Z " fill="#6368EE" transform="translate(233,96)"/>
<path d="M0 0 C0.99 0.33 1.98 0.66 3 1 C2.67 2.65 2.34 4.3 2 6 C-1.3 5.67 -4.6 5.34 -8 5 C-8 4.67 -8 4.34 -8 4 C-4.535 3.505 -4.535 3.505 -1 3 C-0.67 2.01 -0.34 1.02 0 0 Z " fill="#B0DEDF" transform="translate(320,75)"/>
<path d="M0 0 C3.76687864 0 4.91190305 0.23537317 8 2 C4.5980513 4.09350689 1.94727588 4.17942163 -2 4 C-2 3.01 -2 2.02 -2 1 C-1.34 1.33 -0.68 1.66 0 2 C0 1.34 0 0.68 0 0 Z " fill="#3966D5" transform="translate(247,182)"/>
<path d="M0 0 C1.39195915 4.17587745 -0.17676781 6.13474776 -2 10 C-3.98 10 -5.96 10 -8 10 C-8 9.67 -8 9.34 -8 9 C-6.35 9 -4.7 9 -3 9 C-2.87625 7.700625 -2.7525 6.40125 -2.625 5.0625 C-2.4140625 2.84765625 -2.4140625 2.84765625 -2 1 C-1.34 0.67 -0.68 0.34 0 0 Z " fill="#7026E7" transform="translate(210,152)"/>
<path d="M0 0 C0.33 0.66 0.66 1.32 1 2 C1.99 2.33 2.98 2.66 4 3 C5.3125 6.375 5.3125 6.375 6 10 C5.01 11.485 5.01 11.485 4 13 C3.32694982 11.39850114 2.66177773 9.79368971 2 8.1875 C1.62875 7.29417969 1.2575 6.40085938 0.875 5.48046875 C0 3 0 3 0 0 Z " fill="#5466D1" transform="translate(246,122)"/>
<path d="M0 0 C0.66 0 1.32 0 2 0 C1.54337885 4.10959039 1.19432019 6.31677104 -2 9 C-2.66 9.99 -3.32 10.98 -4 12 C-3.33501617 7.61110675 -1.81242323 4.0188515 0 0 Z " fill="#6227BC" transform="translate(210,120)"/>
<path d="M0 0 C1.98 0 3.96 0 6 0 C5.67 1.32 5.34 2.64 5 4 C2.36 3.67 -0.28 3.34 -3 3 C-2.01 2.67 -1.02 2.34 0 2 C0 1.34 0 0.68 0 0 Z " fill="#5A50D0" transform="translate(226,91)"/>
<path d="M0 0 C4 4.75 4 4.75 4 7 C2.68 7.33 1.36 7.66 0 8 C0 6.35 0 4.7 0 3 C-0.99 3 -1.98 3 -3 3 C-3 2.34 -3 1.68 -3 1 C-2.01 0.67 -1.02 0.34 0 0 Z " fill="#1A22DB" transform="translate(167,75)"/>
<path d="M0 0 C0.99 0.33 1.98 0.66 3 1 C2.43628586 4.26954202 1.50037734 5.82575883 -1 8 C-1.66 7.34 -2.32 6.68 -3 6 C-2.01 4.02 -1.02 2.04 0 0 Z " fill="#5C1DC5" transform="translate(205,132)"/>
<path d="M0 0 C0.99 0.33 1.98 0.66 3 1 C3.33 1.99 3.66 2.98 4 4 C3.34 4 2.68 4 2 4 C1.67 5.32 1.34 6.64 1 8 C0.34 7.34 -0.32 6.68 -1 6 C-0.625 2.875 -0.625 2.875 0 0 Z " fill="#4086D8" transform="translate(274,177)"/>
<path d="M0 0 C0.66 0.33 1.32 0.66 2 1 C2 1.66 2 2.32 2 3 C-0.97 2.67 -3.94 2.34 -7 2 C-7 1.34 -7 0.68 -7 0 C-4.30919898 -1.34540051 -2.86443593 -0.71610898 0 0 Z " fill="#4BA0EA" transform="translate(288,183)"/>
<path d="M0 0 C1.65 0 3.3 0 5 0 C4.67 0.94875 4.34 1.8975 4 2.875 C2.89840809 5.77062452 2.89840809 5.77062452 3 8 C1.68 7.34 0.36 6.68 -1 6 C-0.34 5.67 0.32 5.34 1 5 C0.67 3.35 0.34 1.7 0 0 Z " fill="#335FCB" transform="translate(256,182)"/>
<path d="M0 0 C2.475 0.99 2.475 0.99 5 2 C5.33 4.64 5.66 7.28 6 10 C4.5 8.75 4.5 8.75 3 7 C3 5.68 3 4.36 3 3 C2.01 2.67 1.02 2.34 0 2 C0 1.34 0 0.68 0 0 Z " fill="#97FAFA" transform="translate(278,63)"/>
<path d="M0 0 C0.33 0.99 0.66 1.98 1 3 C-3.05431692 4.15837626 -5.21812119 3.83691257 -9 2 C-9 1.67 -9 1.34 -9 1 C-4.545 0.505 -4.545 0.505 0 0 Z " fill="#3043A7" transform="translate(217,190)"/>
<path d="M0 0 C0.66 0 1.32 0 2 0 C2.99 2.97 3.98 5.94 5 9 C4.34 9 3.68 9 3 9 C3 8.34 3 7.68 3 7 C2.34 7 1.68 7 1 7 C0.67 4.69 0.34 2.38 0 0 Z " fill="#5A83BF" transform="translate(259,155)"/>
<path d="M0 0 C0.99 0.33 1.98 0.66 3 1 C2.67 2.32 2.34 3.64 2 5 C1.34 5 0.68 5 0 5 C-0.33 5.66 -0.66 6.32 -1 7 C-1.625 4.625 -1.625 4.625 -2 2 C-1.34 1.34 -0.68 0.68 0 0 Z " fill="#6E19DE" transform="translate(209,127)"/>
<path d="M0 0 C0.99 0.66 1.98 1.32 3 2 C2.01 2.33 1.02 2.66 0 3 C0 3.66 0 4.32 0 5 C0.66 5.33 1.32 5.66 2 6 C1.67 6.66 1.34 7.32 1 8 C0.34 8 -0.32 8 -1 8 C-1 6.35 -1 4.7 -1 3 C-1.66 2.67 -2.32 2.34 -3 2 C-2.01 1.34 -1.02 0.68 0 0 Z " fill="#3965AA" transform="translate(256,179)"/>
<path d="M0 0 C-0.99 0.33 -1.98 0.66 -3 1 C-3.33 1.99 -3.66 2.98 -4 4 C-5.65 3.67 -7.3 3.34 -9 3 C-9 2.34 -9 1.68 -9 1 C-2.25 -1.125 -2.25 -1.125 0 0 Z " fill="#3A91E4" transform="translate(301,212)"/>
<path d="M0 0 C0.66 0 1.32 0 2 0 C1.125 3.875 1.125 3.875 0 5 C-2.67058851 5.14115161 -5.32432238 5.04247107 -8 5 C-8 4.67 -8 4.34 -8 4 C-7.05125 3.896875 -6.1025 3.79375 -5.125 3.6875 C-1.70892499 3.31460705 -1.70892499 3.31460705 0 0 Z " fill="#4F7FA5" transform="translate(289,188)"/>
<path d="M0 0 C3.96 0 7.92 0 12 0 C12 0.99 12 1.98 12 3 C6.06 2.01 6.06 2.01 0 1 C0 0.67 0 0.34 0 0 Z " fill="#4671D8" transform="translate(250,162)"/>
<path d="M0 0 C1.32 0 2.64 0 4 0 C3.67 1.32 3.34 2.64 3 4 C2.01 4 1.02 4 0 4 C-0.33 4.66 -0.66 5.32 -1 6 C-1.042721 4.33388095 -1.04063832 2.66617115 -1 1 C-0.67 0.67 -0.34 0.34 0 0 Z " fill="#6F29E4" transform="translate(212,146)"/>
<path d="M0 0 C0 0.99 0 1.98 0 3 C-0.66 3 -1.32 3 -2 3 C-2 3.66 -2 4.32 -2 5 C-2.99 5 -3.98 5 -5 5 C-5 3.68 -5 2.36 -5 1 C-3 0 -3 0 0 0 Z " fill="#9FF9F3" transform="translate(307,43)"/>
<path d="M0 0 C1.98 0.495 1.98 0.495 4 1 C3.67 2.32 3.34 3.64 3 5 C1.68 4.67 0.36 4.34 -1 4 C-0.67 2.68 -0.34 1.36 0 0 Z " fill="#33BFF2" transform="translate(315,138)"/>
<path d="M0 0 C2.64 0 5.28 0 8 0 C4.71536341 2.18975773 1.79303725 2.99806563 -2 4 C-1.34 2.68 -0.68 1.36 0 0 Z " fill="#9CF0EE" transform="translate(298,79)"/>
<path d="M0 0 C2.64 0 5.28 0 8 0 C8 0.99 8 1.98 8 3 C5.03 2.67 2.06 2.34 -1 2 C-0.67 1.34 -0.34 0.68 0 0 Z " fill="#2532BA" transform="translate(194,177)"/>
<path d="M0 0 C0 0.99 0 1.98 0 3 C-2.64 3 -5.28 3 -8 3 C-7 1 -7 1 -4.5625 -0.1875 C-2 -1 -2 -1 0 0 Z " fill="#55ADCD" transform="translate(286,162)"/>
<path d="M0 0 C2.0625 0.4375 2.0625 0.4375 4 1 C3.67 2.65 3.34 4.3 3 6 C2.34 6 1.68 6 1 6 C0.34 4.35 -0.32 2.7 -1 1 C-0.67 0.67 -0.34 0.34 0 0 Z " fill="#91F8F8" transform="translate(275,56)"/>
<path d="M0 0 C0 0.99 0 1.98 0 3 C-0.66 3 -1.32 3 -2 3 C-2.66 2.34 -3.32 1.68 -4 1 C-5.98 1.99 -5.98 1.99 -8 3 C-7.67 2.01 -7.34 1.02 -7 0 C-4.3333581 -1.33332095 -2.83319697 -0.67102033 0 0 Z " fill="#ABD9D4" transform="translate(341,43)"/>
<path d="" fill="#0040BF" transform="translate(0,0)"/>
<path d="" fill="#404080" transform="translate(0,0)"/>
<path d="" fill="#555555" transform="translate(0,0)"/>
<path d="" fill="#808080" transform="translate(0,0)"/>
<path d="" fill="#000080" transform="translate(0,0)"/>
<path d="" fill="#000080" transform="translate(0,0)"/>
<path d="" fill="#496D92" transform="translate(0,0)"/>
<path d="" fill="#404080" transform="translate(0,0)"/>
<path d="" fill="#000000" transform="translate(0,0)"/>
<path d="" fill="#008080" transform="translate(0,0)"/>
<path d="" fill="#808080" transform="translate(0,0)"/>
<path d="" fill="#000000" transform="translate(0,0)"/>
</svg>
