<svg xmlns="http://www.w3.org/2000/svg" width="430" height="430" style="width:100%;height:100%;transform:translate3d(0,0,0);content-visibility:visible" viewBox="0 0 430 430"><defs><clipPath id="e"><path d="M0 0h430v430H0z"/></clipPath><clipPath id="i"><path d="M0 0h430v430H0z"/></clipPath><clipPath id="c"><path d="M0 0h430v430H0z"/></clipPath><clipPath id="f"><path d="M0 0h430v430H0z"/></clipPath><clipPath id="d"><path d="M0 0h430v430H0z"/></clipPath><filter id="j" width="300%" height="300%" x="-100%" y="-100%"><feGaussianBlur result="filter_result_0"/></filter><filter id="h" width="300%" height="300%" x="-100%" y="-100%"><feGaussianBlur result="filter_result_0" stdDeviation="52.5 52.5"/></filter><mask id="k" mask-type="alpha"><use xmlns:ns1="http://www.w3.org/1999/xlink" ns1:href="#a"/></mask><mask id="g" mask-type="alpha"><use xmlns:ns2="http://www.w3.org/1999/xlink" ns2:href="#b"/></mask><g id="a" fill-opacity="0" clip-path="url(#c)" style="display:none"><path stroke-linecap="round" stroke-linejoin="round" class="secondary" style="display:none"/><path stroke-linecap="round" stroke-linejoin="round" class="secondary" style="display:none"/><path stroke-linecap="round" stroke-linejoin="round" class="secondary" style="display:none"/><path class="primary" style="display:none"/><path stroke-linecap="round" class="primary" style="display:none"/></g><g id="b" fill-opacity="0" clip-path="url(#d)" style="display:block"><path stroke="#08A88A" stroke-linecap="round" stroke-linejoin="round" stroke-width="12" d="M-55.618 55.618 55.618-55.618" class="secondary" style="display:block" transform="translate(196.36 195.272)"/><path stroke="#08A88A" stroke-linecap="round" stroke-linejoin="round" stroke-width="12" d="M0 21.757c12.016 0 21.757-9.741 21.757-21.757 0-12.016-9.741-21.757-21.757-21.757-12.016 0-21.757 9.741-21.757 21.757 0 12.016 9.741 21.757 21.757 21.757z" class="secondary" style="display:block" transform="translate(238.788 238.242)"/><path stroke="#08A88A" stroke-linecap="round" stroke-linejoin="round" stroke-width="12" d="M0 21.757c12.016 0 21.757-9.741 21.757-21.757 0-12.016-9.741-21.757-21.757-21.757-12.016 0-21.757 9.741-21.757 21.757 0 12.016 9.741 21.757 21.757 21.757z" class="secondary" style="display:block" transform="translate(151.758 151.757)"/><g stroke="#121331" style="display:block"><path stroke-linecap="round" stroke-width="12" d="m376.91 379.34-80-80" class="primary"/><path stroke-width="11.6" d="M195 50c80.025 0 145 64.975 145 145s-64.975 145-145 145S50 275.025 50 195 114.975 50 195 50z" class="primary"/></g></g></defs><g clip-path="url(#e)"><g clip-path="url(#f)" mask="url(#g)" style="display:block"><g filter="url(#h)" transform="rotate(-94 238.295 -17.065) scale(2.4)"><g class="design"><path fill="#4BE1EC" d="M0-250c137.975 0 250 112.025 250 250S137.975 250 0 250-250 137.975-250 0-137.975-250 0-250z" class="primary"/></g><g class="design"><path fill="#CB5EEE" d="M113.242-295.384c97.478 0 176.5 79.022 176.5 176.5s-79.022 176.5-176.5 176.5c-43.948 0-74.396-34.057-105.29-60.631-37.631-32.369-71.21-62.338-71.21-115.869 0-97.478 79.022-176.5 176.5-176.5z" class="secondary"/></g></g></g><g clip-path="url(#i)" filter="url(#j)" mask="url(#k)" style="display:none"><g class="design"><path class="primary"/></g><g class="design"><path class="secondary"/></g></g></g></svg>